<?xml version="1.0" standalone="no"?><!DOCTYPE svg PUBLIC "-//W3C//DTD SVG 1.1//EN" "http://www.w3.org/Graphics/SVG/1.1/DTD/svg11.dtd"><svg t="1695301953886" class="icon" viewBox="0 0 1024 1024" version="1.1" xmlns="http://www.w3.org/2000/svg" p-id="4381" xmlns:xlink="http://www.w3.org/1999/xlink" width="128" height="128"><path d="M928 0l9.28 0.448A96 96 0 0 1 1024 96v832l-0.448 9.216A96 96 0 0 1 928 1024h-832l-9.28-0.448A96 96 0 0 1 0 928v-832l0.448-9.216A96 96 0 0 1 96 0h832z m0 64h-832l-5.76 0.512A32 32 0 0 0 64 96v832a32 32 0 0 0 32 32h832l5.76-0.512A32 32 0 0 0 960 928v-832l-0.512-5.76A32 32 0 0 0 928 64z"  p-id="4382"></path><path d="M677.184 207.936c-37.312 0-73.216 14.464-100.032 40.576L467.712 354.56a26.88 26.88 0 0 0-8.448 19.264 27.136 27.136 0 0 0 8.064 19.52 28.8 28.8 0 0 0 40.064 0.32l109.376-106.112a90.24 90.24 0 0 1 60.288-23.616c22.528-0.256 44.224 8.32 60.352 23.616 15.36 15.872 24.128 36.672 24.256 58.368 0.32 21.952-8.512 42.944-24.256 58.496L607.68 530.176a88.32 88.32 0 0 1-120.576 0 28.8 28.8 0 0 0-39.808 0 26.624 26.624 0 0 0 0 38.656c26.56 26.432 62.592 41.088 100.224 40.064a144.064 144.064 0 0 0 100.096-40.576l129.728-125.76a134.592 134.592 0 0 0 0-194.048 139.392 139.392 0 0 0-98.432-40.576h-1.728zM463.68 415.168c-37.376 0-73.344 14.464-100.096 40.576L233.92 581.504c-27.008 25.024-42.176 60.16-41.92 97.024a135.04 135.04 0 0 0 41.92 97.024c26.56 26.368 62.592 41.024 100.032 40.576a145.088 145.088 0 0 0 100.16-39.872l109.312-106.112a26.816 26.816 0 0 0 0-38.656 28.8 28.8 0 0 0-39.808 0L394.24 737.664a90.752 90.752 0 0 1-60.288 23.552 85.44 85.44 0 0 1-60.224-23.552 84.416 84.416 0 0 1-24.32-58.496 80 80 0 0 1 24.32-58.432l129.6-125.76a88.32 88.32 0 0 1 120.512 0l0.64 0.576a28.224 28.224 0 0 0 39.232-0.576 31.104 31.104 0 0 0 8.128-19.584 27.2 27.2 0 0 0-8.128-19.648 139.264 139.264 0 0 0-98.304-40.576h-1.728z"  p-id="4383"></path></svg>
