<?xml version="1.0" standalone="no"?><!DOCTYPE svg PUBLIC "-//W3C//DTD SVG 1.1//EN" "http://www.w3.org/Graphics/SVG/1.1/DTD/svg11.dtd"><svg t="1769173465244" class="icon" viewBox="0 0 1024 1024" version="1.1" xmlns="http://www.w3.org/2000/svg" p-id="1826" xmlns:xlink="http://www.w3.org/1999/xlink" width="200" height="200"><path d="M964.835 458.843c0.06-1.338 0.048-2.692-0.057-4.062-3.386-44.031-21.228-99.126-36.522-126.955-15.356-27.941-32.903-49.402-52.151-63.788-19.38-14.483-40.607-22.138-63.094-22.752-39.179-1.077-79.258 19.056-119.118 59.82-27.176 27.792-44.721 55.772-45.454 56.949a315.457 315.457 0 0 0-6.999 11.909L497.838 629.419 364.415 362.573c-8.217-16.434-28.198-23.096-44.633-14.878-16.434 8.217-23.094 28.2-14.877 44.634l159.026 318.052c6.273 12.547 18.554 20.455 32.048 20.641l0.483 0.003c13.201 0 25.385-7.414 31.959-19.463l171.237-309.386a249.014 249.014 0 0 1 5.225-8.894c0.148-0.235 15.052-23.845 37.41-46.501 25.352-25.69 49.871-39.561 68.961-38.982 20.275 0.585 40.022 18.106 58.693 52.076 2.196 3.996 4.506 8.934 6.822 14.527a33.458 33.458 0 0 0 1.291 4.541 387.617 387.617 0 0 1 16.416 59.659c4.58 24.025 6.902 48.72 6.902 73.399 0 214.704-174.676 389.379-389.379 389.379-214.704 0-389.379-174.675-389.379-389.379S297.296 122.621 512 122.621c82.479 0 161.279 25.454 227.88 73.61 14.888 10.766 35.686 7.422 46.451-7.466 10.765-14.889 7.424-35.686-7.466-46.452C700.848 85.903 608.567 56.086 512 56.086c-61.534 0-121.244 12.059-177.473 35.841-54.294 22.965-103.048 55.833-144.907 97.693-41.86 41.859-74.728 90.613-97.693 144.907C68.145 390.757 56.086 450.467 56.086 512c0 61.534 12.059 121.244 35.841 177.473 22.965 54.294 55.833 103.048 97.693 144.907 41.859 41.859 90.613 74.729 144.908 97.692 56.229 23.783 115.938 35.842 177.472 35.842 61.533 0 121.243-12.059 177.473-35.842 54.294-22.964 103.047-55.833 144.907-97.692 41.859-41.859 74.729-90.613 97.692-144.907 23.783-56.229 35.842-115.938 35.842-177.473 0-17.768-1.035-35.548-3.079-53.157z" p-id="1827"></path></svg>