<?xml version="1.0" standalone="no"?><!DOCTYPE svg PUBLIC "-//W3C//DTD SVG 1.1//EN" "http://www.w3.org/Graphics/SVG/1.1/DTD/svg11.dtd"><svg t="1741350642661" class="icon" viewBox="0 0 1024 1024" version="1.1" xmlns="http://www.w3.org/2000/svg" p-id="2657" xmlns:xlink="http://www.w3.org/1999/xlink" width="200" height="200"><path d="M280.128 250.112c4.352-11.264 20.48-21.056 33.024-24.256 29.824-7.552 61.056-15.36 91.52-15.04 92.864 0.832 186.24 4.224 279.04 8.576 38.144 1.664 63.552 22.4 74.56 63.808 12.352 48.256 28.736 95.616 45.44 149.184-196.16 44.8-386.88 43.392-586.432 0.32 22.144-64.64 40.832-124.416 62.848-182.592m562.816 399.36c-24.448 6.144-49.792 6.72-70.528 9.408-23.68-2.176-42.624-1.664-60.8-5.888-22.784-5.376-29.696-33.152-9.984-43.072 43.328-22.08 88.96-39.936 135.104-54.912 18.496-6.016 31.296 10.176 31.808 31.68 0.512 25.088 7.424 54.656-25.6 62.784m-539.712 5.44a224 224 0 0 1-48 4.288c-23.296-2.496-46.912-3.008-69.76-8.128-29.696-6.464-37.888-29.888-28.928-71.36 6.144-28.544 27.2-29.632 46.4-23.168 38.272 13.248 75.648 29.312 112.064 47.168 8.448 3.776 19.456 22.08 16.896 29.056-3.52 9.984-17.664 19.456-28.672 22.144m655.36-181.056c-12.864-36.032-32.832-60.864-74.88-56-6.4 0.832-17.472-12.352-20.544-21.504a4619.136 4619.136 0 0 1-57.216-164.032 96.704 96.704 0 0 0-66.624-66.752c-43.072-12.416-87.424-20.224-131.52-29.888a604.16 604.16 0 0 0-192 0c-24.896 3.968-50.304 7.168-74.88 12.352-66.176 13.44-117.76 43.648-136.448 118.784-11.264 44.608-27.904 88.064-43.84 131.136-3.072 8.32-13.312 20.736-18.944 20.16-45.952-6.144-64.128 23.424-76.416 61.696-2.304 8.96-1.024 16.96 0 23.936l5.952 1.664 41.792 11.52a25382.784 25382.784 0 0 0-2.368 209.536c-0.512 37.76-1.792 75.136 0.512 112.32 1.28 17.216 7.232 44.16 16.192 50.88 2.368 3.328 19.2 5.376 40.448 6.336h53.056c23.936-0.96 45.376-3.072 53.632-6.336 10.24-4.096 15.104-59.008 23.552-91.264h433.856c10.752 30.72-10.048 68.672 23.616 91.264 9.92 7.36 137.6 7.808 143.296-2.432 6.08-3.968 14.848-28.544 15.104-44.16 1.792-88.576 1.536-177.408 0.512-266.048-0.256-19.392-4.096-38.784-6.4-57.92l48.384-13.696 2.88-0.832c0.256-8.32 1.792-19.392-0.704-30.72"  p-id="2658"></path></svg>
