<?xml version="1.0" standalone="no"?><!DOCTYPE svg PUBLIC "-//W3C//DTD SVG 1.1//EN" "http://www.w3.org/Graphics/SVG/1.1/DTD/svg11.dtd"><svg t="1741413643830" class="icon" viewBox="0 0 1183 1024" version="1.1" xmlns="http://www.w3.org/2000/svg" p-id="2706" xmlns:xlink="http://www.w3.org/1999/xlink" width="231.0546875" height="200"><path d="M650.036786 702.07938a44.112294 44.112294 0 0 0-3.469506 6.691191 68.64666 68.64666 0 0 1-5.947725 10.656341 293.421104 293.421104 0 0 1-36.92546-2.726041c-18.090997-2.726041-18.338819-12.638916-15.8606-24.782188s26.269119-10.160697 37.668925-11.399806 13.13456 5.452081 16.356244 12.143272a29.986447 29.986447 0 0 0 8.178122 10.408519zM676.553727 988.809293a133.32817 133.32817 0 0 1-1.239109 18.338819 19.82575 19.82575 0 0 1-21.560504 16.604066h-42.625363c-20.569216 0-24.782188-40.89061-24.782188-59.477251a69.142304 69.142304 0 0 0 39.403679 22.056148 148.693127 148.693127 0 0 0 31.7212 2.973862h19.577929zM1161.29332 716.700871a297.386254 297.386254 0 0 1-36.925459 2.726041 52.78606 52.78606 0 0 1-5.947725-10.656341l-3.221685-6.691191a30.482091 30.482091 0 0 0 8.178122-10.408518c2.973863-6.691191 4.956438-13.630203 16.356244-12.143272s35.190707-1.486931 37.668925 11.399806 1.982575 23.047435-15.8606 24.782188zM1179.136496 964.274927c0 18.338819-4.956438 59.477251-24.782188 59.477251h-42.625363a19.577928 19.577928 0 0 1-21.312682-16.604066 84.011617 84.011617 0 0 1 0-18.338819h19.577929a148.693127 148.693127 0 0 0 29.986447-2.478218 69.88577 69.88577 0 0 0 39.403679-22.056148z"  p-id="2707"></path><path d="M1149.645692 926.110358a261.947725 261.947725 0 0 1-80.046466 13.878025 2.478219 2.478219 0 0 1-1.486932-4.212972 59.229429 59.229429 0 0 1 16.851888-9.665053 29.242982 29.242982 0 0 1 4.460794-1.982575 264.673766 264.673766 0 0 1 57.246854-19.82575c3.717328 0 7.682478 3.96515 8.921587 9.169409a10.160697 10.160697 0 0 1-5.947725 12.638916z m-97.393998-93.428848c-4.956438-7.186834 3.96515-15.117135 8.673766-19.577928s8.673766-7.186834 13.134559-10.408519 12.886738-8.178122 19.082285-12.143272a178.679574 178.679574 0 0 1 31.473378-17.595353 21.560503 21.560503 0 0 1 28.003873 22.55179A40.394966 40.394966 0 0 1 1115.198451 836.151016a223.03969 223.03969 0 0 1-31.473378 2.973863 85.994192 85.994192 0 0 1-17.843176 0c-4.708616 0-11.399806-1.486931-14.373669-5.699903z m-169.757986-137.045498c-71.868345 0-203.957406 7.186834-203.957406 7.186834s28.251694-54.025169 36.181994-65.920619a39.899322 39.899322 0 0 1 30.482091-18.834463c16.604066-3.717328 137.29332-5.452081 137.293321-5.452082s120.689255 1.734753 137.045498 5.452082a40.394966 40.394966 0 0 1 30.729913 18.834463c7.682478 11.89545 36.181994 65.92062 36.181994 65.920619s-131.097773-7.186834-203.957405-7.186834z m-121.432721 104.085188h242.865441c27.260407 0-13.13456 49.564376-35.438529 55.264279a603.198451 603.198451 0 0 1-85.994191 2.973863 606.420136 606.420136 0 0 1-86.242014-2.973863c-22.056147-4.956438-62.451113-55.016457-35.190707-55.264279z m257.734754 129.858664c-8.673766 14.373669-28.499516 21.312682-121.928364 20.817038H867.376573c-93.428848 0-113.254598-6.443369-121.928364-20.817038s8.178122-14.621491 8.178122-14.62149h256.743466s16.604066 0 7.9303 14.62149zM712.487899 832.68151c-2.726041 4.212972-9.665053 4.956438-14.125847 5.699903a88.47241 88.47241 0 0 1-18.090997 0 223.03969 223.03969 0 0 1-31.225556-2.973862 39.899322 39.899322 0 0 1-36.677638-40.642788 21.560503 21.560503 0 0 1 27.75605-22.551791 170.25363 170.25363 0 0 1 31.473378 17.595353c6.443369 3.96515 12.886738 7.9303 19.082285 12.143272a110.280736 110.280736 0 0 1 13.13456 10.408519c4.956438 4.460794 13.878025 12.391094 8.673765 19.577929z m-17.099709 107.306873a260.708616 260.708616 0 0 1-80.046467-13.878025 10.656341 10.656341 0 0 1-6.195547-12.638916 10.904163 10.904163 0 0 1 9.16941-9.169409 264.673766 264.673766 0 0 1 57.246853 19.82575l4.460794 1.982575a61.212004 61.212004 0 0 1 16.604066 9.665053 2.478219 2.478219 0 0 1-1.486931 4.212972z m485.730881-127.876089a77.072604 77.072604 0 0 0-43.121007-66.664085 87.481123 87.481123 0 0 1-27.508229-33.455953 649.541142 649.541142 0 0 0-61.707647-89.71152 77.568248 77.568248 0 0 0-52.538238-18.586641l-113.750242-2.230397-114.245886 2.230397a78.063892 78.063892 0 0 0-52.78606 18.586641 696.875121 696.875121 0 0 0-61.707648 89.71152 84.259439 84.259439 0 0 1-27.260406 33.455953 76.57696 76.57696 0 0 0-43.121007 66.664085 900.832527 900.832527 0 0 0 0 125.645692 48.077444 48.077444 0 0 0 43.121007 40.147145 440.131655 440.131655 0 0 0 96.40271 0c42.377541 0 159.101646-1.486931 159.101646-1.486932s116.476283 0 159.101646 1.486932a440.131655 440.131655 0 0 0 96.40271 0 48.077444 48.077444 0 0 0 43.121007-40.147145 900.832527 900.832527 0 0 0 0-125.645692z"  p-id="2708"></path><path d="M709.761859 0H205.939981A210.648596 210.648596 0 0 0 0 206.931268v504.0697A209.657309 209.657309 0 0 0 205.939981 916.940949h229.483059c7.9303-134.071636 116.476283-275.577928 283.75605-387.097774a789.560503 789.560503 0 0 1 198.257502-97.889642V206.931268A211.639884 211.639884 0 0 0 709.761859 0zM198.257502 753.130687c0 9.912875-12.391094 17.843175-24.782187 17.843176s-24.782188-7.9303-24.782188-17.843176v-122.176186c0-9.912875 12.391094-17.843175 24.782188-17.843175s24.782188 7.9303 24.782187 17.843175z m123.910939 2.478219c0 9.912875-12.391094 17.843175-24.782187 17.843175s-24.782188-7.9303-24.782188-17.843175v-220.065828c0-9.665053 12.391094-17.843175 24.782188-17.843175s24.782188 8.178122 24.782187 17.843175z m470.861569-368.511133c0 14.373669-5.699903 29.738625-22.303969 29.738626a23.047435 23.047435 0 0 1-21.312682-20.073572 69.637948 69.637948 0 0 1 0-12.391094V232.704743v-5.699903l-1.982575-30.482091L723.887706 223.03969c-2.726041 3.221684-4.956438 6.195547-7.434657 8.921588l-212.135527 235.430784a28.99516 28.99516 0 0 1-19.577929 11.89545 30.482091 30.482091 0 0 1-19.82575-12.391094l-108.298161-123.910939-12.391093-12.391094-18.834463 21.808326L297.386254 383.628267c43.616651-49.564376-31.225557 35.68635-134.56728 150.42788a24.782188 24.782188 0 0 1-17.347532 8.673766 21.06486 21.06486 0 0 1-18.58664-13.630203A29.490803 29.490803 0 0 1 131.593417 495.643756c14.125847-16.108422 28.499516-31.969022 42.873185-47.829622l153.897386-171.740562a24.782188 24.782188 0 0 1 17.595354-9.912875 24.782188 24.782188 0 0 1 17.843175 10.408519l46.094869 52.538238 63.442401 72.859632 3.96515 3.717328 9.665053 8.921588 220.561472-251.291384-20.073572-8.425944c-1.982575 0-3.717328-7.186834-5.699904-7.186835H545.208132c-12.391094 0-20.073572 0-24.782188-10.65634a21.560503 21.560503 0 0 1 7.9303-24.782188 20.321394 20.321394 0 0 1 12.391094-3.221685H791.543078q1.486931 140.019361 1.486932 278.056147z"  p-id="2709"></path></svg>
