<?xml version="1.0" standalone="no"?><!DOCTYPE svg PUBLIC "-//W3C//DTD SVG 1.1//EN" "http://www.w3.org/Graphics/SVG/1.1/DTD/svg11.dtd"><svg t="1741265486648" class="icon" viewBox="0 0 1228 1024" version="1.1" xmlns="http://www.w3.org/2000/svg" p-id="3595" xmlns:xlink="http://www.w3.org/1999/xlink" width="239.84375" height="200"><path d="M963.277 857.446c-45.363 0-82.176 37.325-82.176 83.252 0 45.977 36.813 83.302 82.176 83.302s82.125-37.325 82.125-83.302c-0.615-46.592-37.428-83.252-82.125-83.252z m-840.704-255.18H81.92v-43.981c0-77.312 61.798-143.207 135.373-143.207h233.37c21.657 1.332 39.423-15.36 40.755-36.659v-3.328c0-23.296-18.432-41.984-40.756-42.65h-81.561c-44.032 1.332-80.896-33.945-82.176-78.591v-3.328a83.046 83.046 0 0 1 82.227-84.634h286.566v41.318H369.101a42.138 42.138 0 0 0-40.755 43.316v1.33c0 22.017 17.766 39.271 39.424 38.606h84.121a83.456 83.456 0 0 1 82.176 84.633v1.331c0 44.647-36.147 80.59-80.179 79.924H217.242c-50.586 0-94.618 47.308-94.618 101.939v44.032z m799.283-519.68h163.686v41.318H921.856V82.637z m0 166.604h163.686v41.268H921.856V249.19z"  p-id="3596"></path><path d="M942.234 373.76h-82.176c-26.266 0-49.306-16.64-57.856-41.318h-72.244c-53.913 0-94.72-38.656-94.72-90.624v-98.56c0-53.965 44.084-101.94 94.72-101.94h72.295A61.747 61.747 0 0 1 860.109 0h82.125v373.76zM729.958 82.637c-27.648 0-53.913 28.672-53.913 60.62v97.895c0 32 26.931 48.64 53.913 48.64h110.388v20.685c0 11.315 9.216 20.633 20.377 20.633h40.755V41.318h-40.755a20.634 20.634 0 0 0-20.377 20.634v20.685H729.958z"  p-id="3597"></path><path d="M819.302 124.57h40.756v124.62h-40.756V124.57z m-81.459 20.684h40.704v83.252h-40.704v-83.252zM246.17 857.446c-45.312 0-82.125 37.325-82.125 83.252 0 45.977 36.813 83.302 82.125 83.302 45.363 0 81.51-37.99 81.51-83.968 0-45.926-36.147-82.586-81.51-82.586z"  p-id="3598"></path><path d="M858.112 667.546c-86.784-79.924-216.934-127.898-295.117-127.898H419.686c-88.73 0-216.217 61.952-305.612 125.235H40.448l-4.608 14.029C20.07 728.218-9.472 848.794 3.02 899.43c12.442 50.637 49.92 79.258 101.889 79.258h24.269a124.98 124.98 0 0 1-5.888-38.656c0-68.608 55.193-124.57 122.88-124.57 67.737 0 122.88 55.962 122.88 124.57 0 13.312-1.946 26.01-5.888 37.99l482.457-1.33a133.274 133.274 0 0 1-5.273-36.66c0-68.608 55.193-124.57 122.88-124.57 67.737 0 122.93 55.962 122.93 124.57 0 12.698-1.945 24.678-5.222 35.994H1228.8V815.462c0-68.608-182.067-141.21-370.688-147.916z m-398.95 27.34H334.234c-14.439 0-36.148-6.656-47.975-15.36l-4.608-3.276c-11.776-8.704-11.776-22.682-0.614-32l50.585-39.322c11.162-8.653 32.87-15.974 47.31-15.974h71.68c14.438 0 26.93 11.98 28.262 26.624l4.608 52.633a24.166 24.166 0 0 1-24.32 26.624z m265.523 0H543.232a29.235 29.235 0 0 1-28.262-26.624l-4.608-53.35a24.166 24.166 0 0 1 24.32-26.624h113.05c14.438 0 33.535 9.984 42.086 21.3l45.312 64c8.55 11.98 3.942 21.298-10.496 21.298z"  p-id="3599"></path></svg>
