<?xml version="1.0" standalone="no"?><!DOCTYPE svg PUBLIC "-//W3C//DTD SVG 1.1//EN" "http://www.w3.org/Graphics/SVG/1.1/DTD/svg11.dtd"><svg t="1739634309437" class="icon" viewBox="0 0 1024 1024" version="1.1" xmlns="http://www.w3.org/2000/svg" p-id="4364" xmlns:xlink="http://www.w3.org/1999/xlink" width="200" height="200"><path d="M733.696 560.64l-47.104-188.416-458.752 104.96 9.216 238.08z"  p-id="4365"></path><path d="M0 627.712l237.056 87.552-9.216-238.08-175.616-55.296z"  p-id="4366"></path><path d="M503.808 320l182.784 52.224-458.752 104.96-175.616-55.296z"  p-id="4367"></path><path d="M0 627.712l238.08 79.36 495.616-146.432-496.64 154.624z"  p-id="4368"></path><path d="M52.224 421.888l166.4 61.44 19.456 223.744-1.024-222.72 449.536-112.128-463.36 98.304z"  p-id="4369"></path><path d="M222.208 383.488L496.64 416.768l104.448-24.064-267.264-34.816z"  p-id="4370"></path><path d="M1024 629.76l-49.664-184.832-464.896 144.384 9.728 245.248z"  p-id="4371"></path><path d="M266.752 728.064l252.416 106.496-9.728-245.248-199.68-55.296z"  p-id="4372"></path><path d="M784.896 388.096l189.44 56.832-464.896 144.384-199.68-55.296z"  p-id="4373"></path><path d="M266.752 728.064l253.44 98.304L1024 629.76l-504.832 204.8z"  p-id="4374"></path><path d="M309.76 534.016l190.464 61.44 19.968 230.912-1.024-229.888 455.168-151.552-469.504 137.728z"  p-id="4375"></path><path d="M519.68 469.504l262.144 36.352 95.744-30.72-268.288-33.28z"  p-id="4376"></path><path d="M864.256 430.08l-47.104-188.416L358.4 346.624l9.216 224.256z"  p-id="4377"></path><path d="M93.696 475.136l273.92 95.744L358.4 346.624 144.384 288.768z"  p-id="4378"></path><path d="M634.368 189.44l182.784 52.224L358.4 346.624 144.384 288.768z"  p-id="4379"></path><path d="M93.696 475.136L368.64 562.688 864.256 430.08l-496.64 140.8z"  p-id="4380"></path><path d="M144.384 288.768l204.8 63.488 19.456 210.432-1.024-208.896 449.536-112.128-463.36 98.304z"  p-id="4381"></path><path d="M333.824 250.368l293.376 35.84 104.448-24.064-278.016-35.84z" p-id="4382"></path></svg>
