<?xml version="1.0" standalone="no"?><!DOCTYPE svg PUBLIC "-//W3C//DTD SVG 1.1//EN" "http://www.w3.org/Graphics/SVG/1.1/DTD/svg11.dtd"><svg t="1695633434502" class="icon" viewBox="0 0 1024 1024" version="1.1" xmlns="http://www.w3.org/2000/svg" p-id="2592" xmlns:xlink="http://www.w3.org/1999/xlink" width="200" height="200"><path d="M274.66 880.8H140.78c-46.86 0-66.94-30.23-66.94-66.94v-669.4c0-59.41 11.49-66.94 66.94-66.94H676.3c51.77 0 67.89 17.35 67.89 66.94v89.87c0 46.74 66.94 52.77 66.94 0v-89.65c0-98.74-31.91-133.88-135-133.88H140.61C75.23 10.86 7 18.89 7 142v693.78a129.71 129.71 0 0 0 5.58 39.05 105.37 105.37 0 0 0 103.2 73.08c81.89 0.33 115.13 0 159 0s40.82-67.11-0.12-67.11z"  p-id="2593"></path><path d="M208.11 211.18c-48.09 0-50.21 67.83 0 67.83h401.64c46 0 53.33-67.78 0-67.83z m107.83 200.71H208.11c-48.09 0-50.21 67.83 0 67.83h107.83c46.06 0 53.33-67.78 0-67.83z"  p-id="2594"></path><path d="M676.3 346.34c-184.85 0-334.7 149.85-334.7 334.7s149.85 334.7 334.7 334.7S1011 865.89 1011 681c0.11-187.34-153.91-334.66-334.7-334.66z m0 602.46c-147.88 0-267.76-119.88-267.76-267.8S528.42 413.28 676.3 413.28 944.06 533.16 944.06 681c-0.34 147.79-120 267.55-267.76 268z"  p-id="2595"></path><path d="M793.44 564L629.38 728.07l-70.28-70.29c-6.7-13.39-33.47-13.39-46.86 0a32.35 32.35 0 0 0-1.12 45.74l1.12 1.12L606 798.41a32.34 32.34 0 0 0 45.74 1.11c0.38-0.36 0.76-0.73 1.12-1.11l187.5-187.49a33.14 33.14 0 0 0-46.86-46.86z"  p-id="2596"></path></svg>
