<?xml version="1.0" standalone="no"?><!DOCTYPE svg PUBLIC "-//W3C//DTD SVG 1.1//EN" "http://www.w3.org/Graphics/SVG/1.1/DTD/svg11.dtd"><svg t="1695299279619" class="icon" viewBox="0 0 1024 1024" version="1.1" xmlns="http://www.w3.org/2000/svg" p-id="10990" xmlns:xlink="http://www.w3.org/1999/xlink" width="200" height="200"><path d="M944.371659 0H78.690534A78.690534 78.690534 0 0 0 0 78.690534v629.609524c0 43.480143 35.21039 78.690534 78.690534 78.690534h393.452668v157.381067H354.150029a39.387894 39.387894 0 1 0 0 78.690534h314.762135a39.387894 39.387894 0 0 0 0-78.690534H550.918991V786.905337h393.452668c43.480143 0 78.690534-35.295646 78.690534-78.690534V78.690534A78.690534 78.690534 0 0 0 944.371659 0z m0 629.609525c0 43.480143-35.21039 78.690534-78.690533 78.690533H157.381067a78.690534 78.690534 0 0 1-78.690533-78.690533V157.381067c0-43.480143 35.21039-78.690534 78.690533-78.690533h708.300059c43.480143 0 78.690534 35.21039 78.690533 78.690533v472.228458zM757.918575 249.37141L552.027308 455.262676 420.393306 323.628674a38.109067 38.109067 0 0 0-28.13421-11.168429 37.256515 37.256515 0 0 0-27.452169 10.912663L206.147032 482.032803a37.427025 37.427025 0 0 0 52.858213 52.858214L391.321289 402.745483l129.587878 129.502623a41.178253 41.178253 0 0 0 38.194321 18.500375 40.837233 40.837233 0 0 0 25.150279-11.765216L815.892099 307.259679a40.922488 40.922488 0 0 0-57.973524-57.973525z" p-id="10991"></path></svg>
