<?xml version="1.0" standalone="no"?><!DOCTYPE svg PUBLIC "-//W3C//DTD SVG 1.1//EN" "http://www.w3.org/Graphics/SVG/1.1/DTD/svg11.dtd"><svg t="1695301465300" class="icon" viewBox="0 0 1024 1024" version="1.1" xmlns="http://www.w3.org/2000/svg" p-id="20224" xmlns:xlink="http://www.w3.org/1999/xlink" width="128" height="128"><path d="M454.817978 143.74912c14.509149 0 26.272116 11.762967 26.272117 26.272116s-11.762967 26.272116-26.272117 26.272117h-179.643113l-0.908567 278.451665c0 14.451433-11.718284 26.169716-26.169716 26.169717s-26.169716-11.718284-26.169717-26.169717l0.981179-301.013178c0.029789-8.324189 3.394095-15.814284 8.793367-21.198662 5.442095-5.4272 12.911709-8.784058 21.098124-8.784058h202.018443zM60.183273 849.119418h375.461702c4.799767 0 9.180625-1.979113 12.366196-5.164683s5.164684-7.566429 5.164684-12.366197V617.066124c0-4.799767-1.979113-9.180625-5.164684-12.366197s-7.566429-5.164684-12.366196-5.164683H60.183273c-4.799767 0-9.180625 1.979113-12.366197 5.164683s-5.164684 7.566429-5.164683 12.366197v214.522414c0 4.799767 1.979113 9.180625 5.164683 12.366197s7.566429 5.164684 12.366197 5.164683z m375.461702 39.410967H60.183273c-15.678371 0-29.919418-6.400931-40.230168-16.71168-10.310749-10.310749-16.71168-24.551796-16.71168-40.230167V617.066124c0-15.678371 6.400931-29.919418 16.71168-40.230168 10.310749-10.310749 24.551796-16.71168 40.230168-16.71168h375.461702c15.678371 0 29.919418 6.400931 40.230167 16.71168 10.310749 10.310749 16.71168 24.551796 16.71168 40.230168v214.522414c0 15.678371-6.400931 29.919418-16.71168 40.230167-10.310749 10.310749-24.551796 16.71168-40.230167 16.71168zM308.631738 925.474444c10.882327 0 19.705484 8.823156 19.705484 19.705483s-8.823156 19.705484-19.705484 19.705484H157.63456c-10.882327 0-19.705484-8.823156-19.705484-19.705484s8.823156-19.705484 19.705484-19.705483h150.997178zM419.694778 982.129571c10.882327 0 19.705484 8.823156 19.705484 19.705484s-8.823156 19.705484-19.705484 19.705483H46.567796c-10.882327 0-19.705484-8.823156-19.705483-19.705483s8.823156-19.705484 19.705483-19.705484h373.126982zM588.500247 291.34848h375.461702c4.799767 0 9.180625-1.979113 12.366196-5.164684s5.164684-7.566429 5.164684-12.366196V59.295185c0-4.799767-1.979113-9.180625-5.164684-12.366196s-7.566429-5.164684-12.366196-5.164684H588.500247c-4.799767 0-9.180625 1.979113-12.366196 5.164684s-5.164684 7.566429-5.164684 12.366196V273.8176c0 4.799767 1.979113 9.180625 5.164684 12.366196s7.566429 5.164684 12.366196 5.164684z m375.461702 39.410967H588.500247c-15.678371 0-29.919418-6.400931-40.230167-16.71168-10.310749-10.310749-16.71168-24.551796-16.71168-40.230167V59.295185c0-15.678371 6.400931-29.919418 16.71168-40.230167 10.310749-10.310749 24.551796-16.71168 40.230167-16.71168h375.461702c15.678371 0 29.919418 6.400931 40.230167 16.71168 10.310749 10.310749 16.71168 24.551796 16.71168 40.230167V273.8176c0 15.678371-6.400931 29.919418-16.71168 40.230167-10.310749 10.310749-24.551796 16.71168-40.230167 16.71168zM836.948713 367.703505c10.882327 0 19.705484 8.823156 19.705483 19.705484s-8.823156 19.705484-19.705483 19.705484h-150.997178c-10.882327 0-19.705484-8.823156-19.705484-19.705484s8.823156-19.705484 19.705484-19.705484h150.997178zM948.011753 424.358633c10.882327 0 19.705484 8.823156 19.705483 19.705483s-8.823156 19.705484-19.705483 19.705484h-373.126982c-10.882327 0-19.705484-8.823156-19.705484-19.705484s8.823156-19.705484 19.705484-19.705483h373.126982zM560.963956 854.972975c-14.509149 0-26.272116-11.762967-26.272116-26.272117s11.762967-26.272116 26.272116-26.272116h179.643113l0.908567-278.451666c0-14.451433 11.718284-26.169716 26.169717-26.169716s26.169716 11.718284 26.169716 26.169716l-0.981178 301.013179c-0.029789 8.324189-3.394095 15.814284-8.793367 21.198661-5.442095 5.4272-12.911709 8.784058-21.098124 8.784059H560.963956z" p-id="20225"></path></svg>