<?xml version="1.0" standalone="no"?><!DOCTYPE svg PUBLIC "-//W3C//DTD SVG 1.1//EN" "http://www.w3.org/Graphics/SVG/1.1/DTD/svg11.dtd"><svg t="1697383910440" class="icon" viewBox="0 0 1052 1024" version="1.1" xmlns="http://www.w3.org/2000/svg" p-id="5984" xmlns:xlink="http://www.w3.org/1999/xlink" width="205.46875" height="200"><path d="M77.183726 77.183726h781.046681v474.943041h77.183726V60.080514A60.080514 60.080514 0 0 0 877.087794 0H60.080514A60.080514 60.080514 0 0 0 0 60.080514v900.769165a60.080514 60.080514 0 0 0 60.080514 60.080514h353.027837v-77.183726H77.183726z"  p-id="5985"></path><path d="M210.062527 257.425268h514.850535v81.569165H210.062527zM210.062527 474.065953h416.178158v81.569165H210.062527zM210.062527 686.759743h223.218843v81.569165H210.062527zM1041.541756 806.043683q-126.300642-155.24454-278.475375-155.24454T482.398287 806.043683a49.55546 49.55546 0 0 0 0 62.711777q126.300642 155.24454 278.475375 155.24454t278.475374-155.24454a49.55546 49.55546 0 0 0 2.19272-62.711777z m-278.475375 157.437259c-78.937901 0-152.174732-40.784582-221.464668-126.300642 69.289936-85.51606 142.96531-126.300642 221.464668-126.300643s152.174732 40.784582 221.464668 126.300643c-69.72848 85.51606-142.96531 126.300642-221.464668 126.300642z"  p-id="5986"></path><path d="M763.066381 741.139186a96.479657 96.479657 0 1 0 96.479658 96.479658 96.479657 96.479657 0 0 0-96.479658-96.479658z m0 123.230835a27.189722 27.189722 0 1 1 27.189722-27.189721 27.189722 27.189722 0 0 1-27.189722 25.435546z" p-id="5987"></path></svg>
