<?xml version="1.0" standalone="no"?><!DOCTYPE svg PUBLIC "-//W3C//DTD SVG 1.1//EN" "http://www.w3.org/Graphics/SVG/1.1/DTD/svg11.dtd"><svg t="1695300862910" class="icon" viewBox="0 0 1024 1024" version="1.1" xmlns="http://www.w3.org/2000/svg" p-id="19695" xmlns:xlink="http://www.w3.org/1999/xlink" width="128" height="128"><path d="M660.992 556.43648c-0.3328 1.47968-0.512 3.01056-0.512 4.5824v187.48928c0 11.3408 9.49248 21.22752 21.21216 21.22752 11.37664 0 21.21728-9.4976 21.21728-21.22752v-145.39264l211.52256 211.52256c8.59648 8.59136 21.9648 8.52992 30.24384 0.24576 8.0384-8.0384 8.17664-21.83168-0.24064-30.23872l-211.52256-211.52768H869.376c11.35104 0 21.23776-9.49248 21.23776-21.20704 0-11.37664-9.50784-21.21728-21.23776-21.21728h-187.65312c-11.35104 0-21.23776 9.4976-21.23776 21.21728-0.00512 1.54112 0.16896 3.06176 0.50688 4.52608zM957.44 191.04768c0-46.6432-37.88288-84.58752-84.608-84.58752H151.17312C104.84224 106.46016 66.56 144.3328 66.56 191.04768v509.57312c0 46.64832 37.87776 84.59776 84.61312 84.59776h466.88256v-51.75296H151.18336c-23.30624 0-32.86016-9.74848-32.86016-33.37728V191.59552c0-23.58784 9.78944-33.3824 32.86016-33.3824h721.62816c23.30624 0 32.86528 9.7536 32.86528 33.3824v296.66304H957.44m-471.22944 296.96512h51.7632v84.8384h-51.7632v-84.8384z m261.77024 106.64448a25.67168 25.67168 0 0 1-25.67168 25.67168H306.8928a25.67168 25.67168 0 1 1 0-51.34848h415.41632a25.68192 25.68192 0 0 1 25.67168 25.6768z"  p-id="19696"></path></svg>
