<?xml version="1.0" standalone="no"?><!DOCTYPE svg PUBLIC "-//W3C//DTD SVG 1.1//EN" "http://www.w3.org/Graphics/SVG/1.1/DTD/svg11.dtd"><svg t="1712070640673" class="icon" viewBox="0 0 1024 1024" version="1.1" xmlns="http://www.w3.org/2000/svg" p-id="8182" xmlns:xlink="http://www.w3.org/1999/xlink" width="200" height="200"><path d="M466.2 703.3h462.3v92.5H466.2v-92.5z m0-123.2h462.3v92.5H466.2v-92.5z m27.2-77.1h407.9l16.3 46.2H477.1l16.3-46.2z m-27.2-30.8l-30.8 77v277.4h523.9V549.3l-30.8-77H466.2z" fill="" p-id="8183"></path><path d="M851.4 765h30.8v-30.8h-30.8V765z m0-123.3h30.8v-30.8h-30.8v30.8zM255.9 412.1C148.7 425 65.5 516 65.5 626.3 65.5 745.4 173.7 765 220.1 765V734.2 765h185.5v-30.8H220.2c-17.3 0-123.7-5.8-123.7-107.9 0-102.1 83.1-184.9 185.6-184.9 1.6-13 3.1-20.8 6-32.4 25.4-113.7 127.3-198.7 249-198.7 133.1 0 242.4 101.6 254.1 231.2h31c-11.8-146.6-135-262-285.1-262-140-0.1-256.5 100.2-281.2 232.6" fill="" p-id="8184"></path><path d="M315.5 426.8h15.4c17.3-94.5 98.4-166.6 196.9-170.2v-15.3c-106.6 4.3-194.1 82.9-212.3 185.5" fill="" p-id="8185"></path></svg>