<?xml version="1.0" standalone="no"?><!DOCTYPE svg PUBLIC "-//W3C//DTD SVG 1.1//EN" "http://www.w3.org/Graphics/SVG/1.1/DTD/svg11.dtd"><svg t="1712070885638" class="icon" viewBox="0 0 1024 1024" version="1.1" xmlns="http://www.w3.org/2000/svg" p-id="9342" xmlns:xlink="http://www.w3.org/1999/xlink" width="200" height="200"><path d="M561.338182 552.494545H462.661818c-13.032727 0-23.272727 10.24-23.272727 23.272728s10.24 23.272727 23.272727 23.272727h98.676364c13.032727 0 23.272727-10.24 23.272727-23.272727s-10.24-23.272727-23.272727-23.272728z" p-id="9343"></path><path d="M750.778182 297.890909H688.872727l-35.84-75.869091c-7.912727-22.341818-27.927273-35.84-51.665454-35.84H422.632727c-23.272727 0-44.218182 14.429091-51.2 33.978182L334.661818 297.890909H273.221818C225.28 297.890909 186.181818 336.523636 186.181818 384.465455v366.312727C186.181818 798.72 225.28 837.818182 273.221818 837.818182h477.556364c47.941818 0 87.04-39.098182 87.04-87.04V384.465455c0-47.941818-39.098182-86.574545-87.04-86.574546z m40.494545 452.887273c0 22.341818-18.152727 40.494545-40.494545 40.494545H273.221818a40.494545 40.494545 0 0 1-40.494545-40.494545V384.465455c0-22.341818 18.152727-40.029091 40.494545-40.029091h76.334546c8.843636 0 17.221818-5.12 20.945454-13.498182l43.752727-92.625455c1.396364-3.723636 5.585455-5.585455 8.378182-5.585454h178.269091c4.189091 0 6.981818 1.861818 9.309091 7.447272l42.821818 90.763637c3.723636 7.912727 12.101818 13.498182 20.945455 13.498182h76.334545c22.807273 0 40.96 17.687273 40.96 40.029091v366.312727z" p-id="9344"></path><path d="M668.858182 424.96H355.141818c-28.392727 0-51.665455 24.669091-51.665454 54.923636v190.836364c0 30.254545 23.272727 54.923636 51.665454 54.923636h313.250909c28.392727 0 51.665455-24.669091 51.665455-54.923636v-190.836364c0.465455-30.254545-22.807273-54.923636-51.2-54.923636z m5.12 246.225455c0 5.12-3.258182 8.378182-5.12 8.378181H355.141818c-1.861818 0-5.12-3.258182-5.12-8.378181v-190.836364c0-5.12 3.258182-8.378182 5.12-8.378182h313.250909c1.861818 0 5.12 3.258182 5.12 8.378182v190.836364h0.465455z" p-id="9345"></path></svg>