<?xml version="1.0" standalone="no"?><!DOCTYPE svg PUBLIC "-//W3C//DTD SVG 1.1//EN" "http://www.w3.org/Graphics/SVG/1.1/DTD/svg11.dtd"><svg t="1712070817625" class="icon" viewBox="0 0 1024 1024" version="1.1" xmlns="http://www.w3.org/2000/svg" p-id="8331" xmlns:xlink="http://www.w3.org/1999/xlink" width="200" height="200"><path d="M930.45 779.59l-0.6-0.85-0.7-0.77a48.57 48.57 0 0 1-1.62-66l0.8-1a33.23 33.23 0 0 0 0.32-37.57l-30.35-49.18-3.82-5.44-0.75-0.81a36.16 36.16 0 0 0-30-11.19c-25.49 2.8-49.62-11.37-58.66-34.47l-0.24-0.57a33.89 33.89 0 0 0-32-20.49h-53.89l-6.91 0.39-1 0.1c-19.62 2.45-26.78 14-29.32 20.79-9.48 24.31-35.62 38.65-62.26 34.09a34.46 34.46 0 0 0-35 16.25l-30.41 49.07-3 5.49-0.37 1a33 33 0 0 0 4 31.26l1 1.22a52.53 52.53 0 0 1 0 68.9l-1 1.22a33.09 33.09 0 0 0-0.37 38.11l30.26 48.77 4.09 5.5 0.7 0.72a34.41 34.41 0 0 0 30.06 10l0.31-0.05a56.53 56.53 0 0 1 62.18 34.41l0.18 0.44a34 34 0 0 0 31.27 20.49h54.21l6.9-0.39 1-0.1c19.47-2.43 26.71-13.84 29.31-20.55a56.06 56.06 0 0 1 60.42-34.58l0.66 0.08a35.69 35.69 0 0 0 34.78-17.69L931 816.84l3-5.51 0.37-1a33.1 33.1 0 0 0-3.92-30.74z m-27.6 20.51l-30.29 49.06-0.35 0.59a3 3 0 0 1-2.75 1.52 88.67 88.67 0 0 0-94.95 54.39 12.54 12.54 0 0 1-2.72 0.65l-4.84 0.29H713.3a1.45 1.45 0 0 1-1.29-0.76 89.39 89.39 0 0 0-97.94-54.11 1.7 1.7 0 0 1-1-0.2l-1.2-1.58-30.09-48.5-0.61-0.92a0.4 0.4 0 0 1-0.07-0.28 85.39 85.39 0 0 0 0-109.83l0.9-1.67L612.27 640l0.2-0.34a1.48 1.48 0 0 1 1.49-0.74c41.67 7.12 82.76-15.57 98-54a12.76 12.76 0 0 1 2.62-0.62l4.84-0.29h54a1.39 1.39 0 0 1 1.27 0.72c13.34 33.53 46.35 55.19 82.47 55.18a90.64 90.64 0 0 0 9.94-0.55 3.19 3.19 0 0 1 2.18 0.57l1.39 2L901 690.92l0.52 0.8a0.4 0.4 0 0 1 0.06 0.31 85.27 85.27 0 0 0-18.9 53.37v0.66a85.35 85.35 0 0 0 21 52.5z" p-id="8332"></path><path d="M742.46 657.67c-49.58 0-89.92 39.38-89.92 87.79s40.34 87.73 89.92 87.73a90.52 90.52 0 0 0 63.39-25.52 87.22 87.22 0 0 0 26.53-62.21c0-48.41-40.38-87.79-89.92-87.79z m40.61 126.5a58 58 0 0 1-40.61 16.29c-31.54 0-57.19-24.67-57.19-55s25.66-55.06 57.19-55.06 57.19 24.7 57.19 55.06a54.32 54.32 0 0 1-16.59 38.71z" p-id="8333"></path><path d="M176.79 409h689.38v106.17h65.46V182.56A106.56 106.56 0 0 0 825.19 76.13H217.77a106.56 106.56 0 0 0-106.44 106.43v659.22a106.56 106.56 0 0 0 106.44 106.44h278.66v-65.46H217.77a41 41 0 0 1-41-41V676.32h336.8v-65.46H176.79z m41-267.46h607.4a41 41 0 0 1 41 41v161h-689.4v-161a41 41 0 0 1 40.98-40.96z" p-id="8334"></path><path d="M247.68 209.16h162.3v65.46h-162.3zM247.68 468.48h162.3v65.46h-162.3zM247.68 747.99h162.3v65.46h-162.3z" p-id="8335"></path></svg>