<?xml version="1.0" standalone="no"?><!DOCTYPE svg PUBLIC "-//W3C//DTD SVG 1.1//EN" "http://www.w3.org/Graphics/SVG/1.1/DTD/svg11.dtd"><svg t="1773065757458" class="icon" viewBox="0 0 1024 1024" version="1.1" xmlns="http://www.w3.org/2000/svg" p-id="4997" xmlns:xlink="http://www.w3.org/1999/xlink" width="200" height="200"><path d="M572.974095 382.004062q-7.007781-3.999875-22.015312-3.999875h-83.005407v122.012187h80.98947q22.015312 0 31.007031-10.015687 12.991594-15.007531 12.991594-54.014312 0-42.014687-19.999375-54.014312z m289.014968 0q-7.007781-3.999875-22.015312-3.999875h-83.005406v122.012187h80.989469q22.015312 0 31.007031-10.015687 12.991594-15.007531 12.991594-54.014312 0-42.014687-19.999375-54.014312z m-674.986907 167.994751h79.9975l-39.99875-146.011438-39.99875 146.011438zM921.987188 0H102.012812Q75.005656 0 51.51839 14.015562T14.015562 51.51839 0 102.012812v819.974376q0 27.007156 14.015562 50.494422t37.502828 37.502828 50.494422 14.015562h819.974376q27.007156 0 50.494422-14.015562t37.502828-37.502828 14.015562-50.494422V102.012812q0-27.007156-14.015562-50.494422T972.48161 14.015562 921.987188 0zM307.990375 720.96947L279.99125 623.980501H173.978563l-27.999125 96.988969H75.965626L192.95397 302.966532h67.997875l116.988344 418.002938H307.926377z m342.997282-221.977064q-7.99975 28.991094-20.991344 46.014563t-27.007156 23.487266-39.006781 6.495797h-95.997001v146.011437H407.98725V302.998531h140.987595q38.014812 0 54.014312 7.99975 27.999125 14.015562 43.998625 56.990219 11.999625 32.990969 11.999625 71.005781 0 31.999-7.99975 59.998125z m288.982969 0q-7.99975 28.991094-20.991344 46.014563t-27.007156 23.487266-39.006781 6.495797h-95.997v146.011437h-59.998125V302.998531h139.995625q39.006781 0 55.006281 7.99975 27.999125 14.015562 43.998625 56.990219 11.999625 32.990969 11.999625 71.005781 0 31.999-7.99975 59.998125z" p-id="4998"></path></svg>