<?xml version="1.0" standalone="no"?><!DOCTYPE svg PUBLIC "-//W3C//DTD SVG 1.1//EN" "http://www.w3.org/Graphics/SVG/1.1/DTD/svg11.dtd"><svg t="1696606367181" class="icon" viewBox="0 0 1024 1024" version="1.1" xmlns="http://www.w3.org/2000/svg" p-id="6338" xmlns:xlink="http://www.w3.org/1999/xlink" width="200" height="200"><path d="M732.096 896c-105.696 0-319.968-109.088-422.784-212.32-102.784-103.264-211.392-318.496-211.392-424.64C97.92 259.04 178.912 128 231.776 128s211.392 159.232 158.528 212.352c-52.864 53.056-105.696 53.056-105.696 106.144s52.832 106.144 105.696 159.232c52.832 53.088 105.696 106.144 158.528 106.144 52.864 0 52.864-53.056 105.696-106.144 52.832-53.088 211.392 106.144 211.392 159.232 0 53.088-133.824 131.04-133.824 131.04z" fill="" p-id="6339"></path></svg>