<?xml version="1.0" standalone="no"?><!DOCTYPE svg PUBLIC "-//W3C//DTD SVG 1.1//EN" "http://www.w3.org/Graphics/SVG/1.1/DTD/svg11.dtd"><svg t="1637933222707" class="icon" viewBox="0 0 1024 1024" version="1.1" xmlns="http://www.w3.org/2000/svg" p-id="7356" xmlns:xlink="http://www.w3.org/1999/xlink" width="200" height="200"><defs><style type="text/css"></style></defs><path d="M512 1024C230.4 1024 0 793.6 0 512S230.4 0 512 0s512 230.4 512 512-230.4 512-512 512z" fill="#F7BE15" p-id="7357"></path><path d="M1023.624 526.76v-29.52c-0.816-28.4-3.904-56.256-9.224-83.352l-233.632-154.256-496.232 0.008s-77.368-15.56-67.472 65.384c8.216 67.264-0.872 304.296-0.872 304.296l16.888 30.496 11.136 7.112 244.672 356.48c7.664 0.344 15.36 0.592 23.112 0.592 276.648 0 503.72-222.416 511.624-497.24z" fill="#DB8E1F" p-id="7358"></path><path d="M763.48 663.24H255.344c-21.68 0-39.424-17.744-39.424-39.424V299.568c0-21.688 17.744-39.432 39.424-39.432H763.48c21.68 0 39.424 17.744 39.424 39.432v324.248c0 21.68-17.744 39.424-39.424 39.424" fill="#DFDEDE" p-id="7359"></path><path d="M758.44 669.552H260.384c-28 0-50.776-22.776-50.776-50.776V304.608c0-27.992 22.776-50.776 50.776-50.776H758.44c28 0 50.776 22.784 50.776 50.776v314.168c-0.008 27.992-22.784 50.776-50.776 50.776M260.384 266.448c-21.04 0-38.168 17.12-38.168 38.16v314.168c0 21.04 17.128 38.16 38.168 38.16H758.44c21.04 0 38.168-17.12 38.168-38.16V304.608c0-21.04-17.128-38.16-38.168-38.16H260.384z" fill="#474341" p-id="7360"></path><path d="M247.384 303.728h522.48v238.784h-522.48z" fill="#DFF1FA" p-id="7361"></path><path d="M635.672 738.384c-22.048 0-40.08-13.224-40.08-29.376v-41.36c0-1.504 0.312-2.952 0.616-4.408h-173.584c0.304 1.448 0.616 2.896 0.616 4.408v41.36c0 16.152-18.04 29.376-40.08 29.376" fill="#DFDEDE" p-id="7362"></path><path d="M635.672 742.792c-24.536 0-44.496-15.152-44.496-33.784v-41.352h-163.528v41.352c0 18.632-19.96 33.784-44.488 33.784-2.44 0-4.416-1.968-4.416-4.408s1.976-4.416 4.416-4.416c19.336 0 35.664-11.432 35.664-24.96v-41.36c0-1.024-0.24-2.192-0.496-3.416l4.296-5.4H596.2l4.32 5.32c-0.272 1.28-0.52 2.456-0.52 3.496v41.36c0 13.528 16.336 24.96 35.672 24.96 2.432 0 4.408 1.968 4.408 4.416 0 2.44-1.976 4.408-4.408 4.408" fill="#474341" p-id="7363"></path><path d="M543.512 738.144h99.056c10.72 0 19.488 7.936 19.488 17.624 0 9.696-8.768 17.632-19.488 17.632h-266.32c-10.72 0-19.488-7.936-19.488-17.632 0-9.688 8.776-17.624 19.488-17.624h86.064" fill="#DFDEDE" p-id="7364"></path><path d="M642.568 777.808h-266.32c-13.176 0-23.896-9.88-23.896-22.032s10.72-22.04 23.896-22.04h86.072a4.412 4.412 0 0 1 0 8.824h-86.064c-8.312 0-15.072 5.928-15.072 13.216s6.76 13.208 15.072 13.208h266.32c8.312 0 15.072-5.92 15.072-13.208s-6.768-13.216-15.072-13.216h-99.064c-2.44 0-4.416-1.976-4.416-4.416s1.976-4.408 4.416-4.408h99.056c13.176 0 23.896 9.888 23.896 22.04 0.008 12.144-10.72 22.032-23.896 22.032" fill="#474341" p-id="7365"></path><path d="M509.68 742.552h-26.512c-2.44 0-4.416-1.968-4.416-4.408s1.976-4.416 4.416-4.416h26.512c2.432 0 4.408 1.968 4.408 4.416 0 2.44-1.976 4.408-4.408 4.408M802.904 573.288H215.912c-2.44 0-4.416-1.968-4.416-4.408s1.976-4.416 4.416-4.416h586.992c2.432 0 4.408 1.968 4.408 4.416 0 2.44-1.976 4.408-4.408 4.408" fill="#474341" p-id="7366"></path><path d="M221.752 572.584v46.4c0 22.744 19.632 41.352 43.624 41.352h488.6c23.992 0 43.624-18.608 43.624-41.352v-46.4H221.752z" fill="#AEABAA" p-id="7367"></path><path d="M509.408 632.96c-12 0-21.76-9.768-21.76-21.76 0-12 9.76-21.76 21.76-21.76 12 0 21.76 9.76 21.76 21.76 0 11.992-9.76 21.76-21.76 21.76m0-34.688c-7.128 0-12.936 5.8-12.936 12.936s5.8 12.936 12.936 12.936 12.936-5.8 12.936-12.936-5.8-12.936-12.936-12.936M520.424 283.016H498.4a2.174 2.174 0 0 1-2.168-2.168v-3.984c0-1.2 0.976-2.176 2.168-2.176h22.024c1.192 0 2.168 0.976 2.168 2.176v3.984c0 1.192-0.976 2.168-2.168 2.168M371.232 546.92h-123.848l-4.408-4.408v-156.12a4.412 4.412 0 0 1 8.824 0v151.712h119.432a4.408 4.408 0 1 1 0 8.816M769.848 546.92H420.144c-2.44 0-4.416-1.968-4.416-4.408s1.976-4.416 4.416-4.416h345.288v-131.92a4.406 4.406 0 1 1 8.816 0v136.336l-4.4 4.408zM769.848 349.184a4.406 4.406 0 0 1-4.408-4.408v-36.64H284.848a4.412 4.412 0 0 1 0-8.824H769.84l4.408 4.416v41.048a4.4 4.4 0 0 1-4.4 4.408" fill="#474341" p-id="7368"></path><path d="M659.088 483.496c-1.68 0-3.296-0.976-4.032-2.608a4.406 4.406 0 0 1 2.216-5.832l74.336-33.36a4.386 4.386 0 0 1 5.832 2.216c1 2.224 0.008 4.84-2.216 5.832l-74.336 33.36c-0.584 0.272-1.2 0.392-1.8 0.392M601.24 509.456c-1.68 0-3.296-0.976-4.032-2.608a4.406 4.406 0 0 1 2.216-5.832l31.52-14.136c2.216-1.024 4.832-0.008 5.832 2.216s0.008 4.84-2.216 5.824l-31.52 14.144a4.226 4.226 0 0 1-1.8 0.392M643.912 514.664a4.412 4.412 0 0 1-1.784-8.448l87.432-38.512a4.412 4.412 0 0 1 3.56 8.072l-87.432 38.504a4.258 4.258 0 0 1-1.776 0.384" fill="#0F95BC" p-id="7369"></path></svg>