<?xml version="1.0" standalone="no"?><!DOCTYPE svg PUBLIC "-//W3C//DTD SVG 1.1//EN" "http://www.w3.org/Graphics/SVG/1.1/DTD/svg11.dtd"><svg t="1652624085165" class="icon" viewBox="0 0 1024 1024" version="1.1" xmlns="http://www.w3.org/2000/svg" p-id="4485" xmlns:xlink="http://www.w3.org/1999/xlink" width="200" height="200"><defs><style type="text/css">@font-face { font-family: feedback-iconfont; src: url("//at.alicdn.com/t/font_1031158_u69w8yhxdu.woff2?t=1630033759944") format("woff2"), url("//at.alicdn.com/t/font_1031158_u69w8yhxdu.woff?t=1630033759944") format("woff"), url("//at.alicdn.com/t/font_1031158_u69w8yhxdu.ttf?t=1630033759944") format("truetype"); }
</style></defs><path d="M616.245526 119.517265m-9.011044 33.629673a34.816 34.816 0 1 0 18.022088-67.259347 34.816 34.816 0 1 0-18.022088 67.259347Z" fill="#0073FF" p-id="4486"></path><path d="M714.320091 160.087653m-17.408 30.15154a34.816 34.816 0 1 0 34.816-60.303081 34.816 34.816 0 1 0-34.816 60.303081Z" fill="#0073FF" p-id="4487"></path><path d="M798.454245 224.696906m-24.61863 24.618629a34.816 34.816 0 1 0 49.23726-49.237259 34.816 34.816 0 1 0-49.23726 49.237259Z" fill="#0073FF" p-id="4488"></path><path d="MNaN NaNmNaN NaNaNaN NaN NaN 1 0 NaN NaN NaN NaN NaN 1 0 NaN NaNZ" fill="#0073FF" p-id="4489"></path><path d="M903.548499 406.948659m-33.629674 9.011044a34.816 34.816 0 1 0 67.259347-18.022087 34.816 34.816 0 1 0-67.259347 18.022087Z" fill="#0073FF" p-id="4490"></path><path d="M406.045237 904.390419m-9.011044 33.629673a34.816 34.816 0 1 0 18.022088-67.259347 34.816 34.816 0 1 0-18.022088 67.259347Z" fill="#0073FF" p-id="4491"></path><path d="M307.93777 863.814586m-17.408 30.15154a34.816 34.816 0 1 0 34.816-60.30308 34.816 34.816 0 1 0-34.816 60.30308Z" fill="#0073FF" p-id="4492"></path><path d="M223.825435 799.325716m-24.61863 24.61863a34.816 34.816 0 1 0 49.23726-49.23726 34.816 34.816 0 1 0-49.23726 49.23726Z" fill="#0073FF" p-id="4493"></path><path d="M143.086933 711.748267A27.306667 27.306667 0 0 1 118.3744 696.32a429.943467 429.943467 0 0 1-40.96-184.046933 434.722133 434.722133 0 0 1 403.592533-432.810667 27.306667 27.306667 0 1 1 3.6864 54.613333A379.972267 379.972267 0 0 0 132.164267 512a375.739733 375.739733 0 0 0 35.6352 160.836267 27.306667 27.306667 0 0 1-24.712534 38.912zM546.133333 944.128a27.306667 27.306667 0 0 1-2.321066-54.613333q10.6496-0.955733 21.162666-2.4576a379.6992 379.6992 0 0 0 324.539734-352.392534 27.306667 27.306667 0 0 1 54.613333 3.2768 434.449067 434.449067 0 0 1-371.780267 403.456q-12.014933 1.6384-24.302933 2.730667zM511.1808 596.650667a84.650667 84.650667 0 1 1 84.650667-84.650667 84.7872 84.7872 0 0 1-84.650667 84.650667z m0-114.824534a30.037333 30.037333 0 1 0 30.037333 30.037334 30.173867 30.173867 0 0 0-30.037333-29.9008z" fill="#0073FF" p-id="4494"></path><path d="M548.4544 499.438933a27.306667 27.306667 0 0 1-19.2512-46.557866l178.722133-178.722134a27.306667 27.306667 0 1 1 38.638934 38.638934L567.842133 491.52a27.306667 27.306667 0 0 1-19.387733 7.918933zM453.700267 539.306667H252.7232a27.306667 27.306667 0 1 1 0-54.613334h200.977067a27.306667 27.306667 0 0 1 0 54.613334z" fill="#0073FF" p-id="4495"></path></svg>