<?xml version="1.0" standalone="no"?><!DOCTYPE svg PUBLIC "-//W3C//DTD SVG 1.1//EN" "http://www.w3.org/Graphics/SVG/1.1/DTD/svg11.dtd"><svg t="1650715633922" class="icon" viewBox="0 0 1024 1024" version="1.1" xmlns="http://www.w3.org/2000/svg" p-id="1667" xmlns:xlink="http://www.w3.org/1999/xlink" width="200" height="200"><defs><style type="text/css">@font-face { font-family: feedback-iconfont; src: url("//at.alicdn.com/t/font_1031158_u69w8yhxdu.woff2?t=1630033759944") format("woff2"), url("//at.alicdn.com/t/font_1031158_u69w8yhxdu.woff?t=1630033759944") format("woff"), url("//at.alicdn.com/t/font_1031158_u69w8yhxdu.ttf?t=1630033759944") format("truetype"); }
</style></defs><path d="M841.142857 1023.926857h-658.285714a182.857143 182.857143 0 0 1-182.857143-182.857143v-658.285714a182.857143 182.857143 0 0 1 182.857143-182.857143h658.285714a182.857143 182.857143 0 0 1 182.857143 182.857143v658.285714a182.857143 182.857143 0 0 1-182.857143 182.857143z m-219.428571-804.571428a36.571429 36.571429 0 0 0-36.571429 36.571428v512a36.571429 36.571429 0 0 0 36.571429 36.571429 36.571429 36.571429 0 0 0 36.571428-36.571429v-512a36.571429 36.571429 0 0 0-36.571428-36.571428z m-292.571429 0a36.571429 36.571429 0 0 0-36.571428 36.571428v512a36.571429 36.571429 0 0 0 36.571428 36.571429 36.571429 36.571429 0 0 0 36.571429-36.571429v-512a36.571429 36.571429 0 0 0-36.571429-36.571428z m438.857143 146.285714a36.571429 36.571429 0 0 0-36.571429 36.571428v219.428572a36.571429 36.571429 0 0 0 36.571429 36.571428 36.571429 36.571429 0 0 0 36.571429-36.571428v-219.428572a36.571429 36.571429 0 0 0-36.571429-36.571428z m-292.571429 0a36.571429 36.571429 0 0 0-36.571428 36.571428v219.428572a36.571429 36.571429 0 0 0 36.571428 36.571428 36.571429 36.571429 0 0 0 36.571429-36.571428v-219.428572a36.571429 36.571429 0 0 0-36.571429-36.571428z" p-id="1668"></path></svg>