<?xml version="1.0" standalone="no"?><!DOCTYPE svg PUBLIC "-//W3C//DTD SVG 1.1//EN" "http://www.w3.org/Graphics/SVG/1.1/DTD/svg11.dtd"><svg t="1658069927413" class="icon" viewBox="0 0 1024 1024" version="1.1" xmlns="http://www.w3.org/2000/svg" p-id="1746" xmlns:xlink="http://www.w3.org/1999/xlink" width="200" height="200"><defs><style type="text/css">@font-face { font-family: feedback-iconfont; src: url("//at.alicdn.com/t/font_1031158_u69w8yhxdu.woff2?t=1630033759944") format("woff2"), url("//at.alicdn.com/t/font_1031158_u69w8yhxdu.woff?t=1630033759944") format("woff"), url("//at.alicdn.com/t/font_1031158_u69w8yhxdu.ttf?t=1630033759944") format("truetype"); }
</style></defs><path d="M787.456 997.376H217.088c-75.776 0-137.216-61.44-137.216-137.216V430.08c0-75.776 61.44-137.216 137.216-137.216H788.48c75.776 0 137.216 61.44 137.216 137.216v430.08c-1.024 75.776-62.464 137.216-138.24 137.216zM217.088 363.52c-36.864 0-66.56 29.696-66.56 66.56v430.08c0 36.864 29.696 66.56 66.56 66.56H788.48c36.864 0 66.56-29.696 66.56-66.56V430.08c0-36.864-29.696-66.56-66.56-66.56H217.088zM748.544 292.864h-70.656c0-97.28-78.848-176.128-176.128-176.128s-176.128 78.848-176.128 176.128h-70.656C254.976 156.672 366.592 46.08 501.76 46.08c136.192 0 246.784 110.592 246.784 246.784z" fill="#4C4C4C" p-id="1747"></path><path d="M501.76 803.84c-29.696 0-53.248-23.552-53.248-53.248V539.648c0-29.696 23.552-53.248 53.248-53.248s53.248 23.552 53.248 53.248v210.944c0 29.696-23.552 53.248-53.248 53.248z" fill="#FFA028" p-id="1748"></path></svg>