<?xml version="1.0" standalone="no"?><!DOCTYPE svg PUBLIC "-//W3C//DTD SVG 1.1//EN" "http://www.w3.org/Graphics/SVG/1.1/DTD/svg11.dtd"><svg t="1569570745076" class="icon" viewBox="0 0 1024 1024" version="1.1" xmlns="http://www.w3.org/2000/svg" p-id="3250" xmlns:xlink="http://www.w3.org/1999/xlink" width="200" height="200"><defs><style type="text/css"></style></defs><path d="M918.528 129.2288h-813.056c-7.9872 0-15.5648 3.072-21.0944 8.6016C78.848 143.36 75.776 150.9376 75.776 158.9248v531.8656c0 7.7824 3.072 15.5648 8.6016 21.0944 5.5296 5.5296 13.1072 8.6016 21.0944 8.6016H229.376c9.0112 0 17.408-3.8912 23.1424-10.8544L417.792 504.6272l75.3664 62.2592c12.288 10.0352 29.696 8.8064 40.5504-2.6624l146.432-158.3104c14.336 8.8064 30.9248 13.5168 48.7424 13.5168 51.8144 0 94.6176-42.3936 94.6176-94.6176 0-52.224-42.3936-94.6176-94.6176-94.6176-51.8144 0-94.6176 42.3936-94.6176 94.6176 0 12.6976 2.6624 24.3712 6.9632 35.84L508.7232 503.808l-76.8-63.6928c-6.144-5.3248-13.9264-7.3728-21.7088-6.5536-7.7824 0.8192-14.7456 4.7104-20.0704 10.8544l-174.8992 216.6784H134.5536v-473.088h753.8688v473.088H481.28c-7.9872 0-15.5648 3.072-21.0944 8.6016-5.5296 5.5296-8.6016 13.1072-8.6016 21.0944V835.584H278.528c-7.7824 0-15.36 3.072-21.0944 8.6016-5.5296 5.5296-8.6016 13.1072-8.6016 21.0944 0 7.7824 3.072 15.5648 8.6016 21.0944 5.5296 5.5296 13.1072 8.6016 21.0944 8.6016h397.1072c7.9872 0 15.5648-3.072 21.0944-8.6016 5.5296-5.5296 8.6016-13.1072 8.6016-21.0944 0-7.9872-3.072-15.5648-8.6016-21.0944-5.5296-5.5296-13.1072-8.6016-21.0944-8.6016h-164.4544v-115.0976h407.1424c7.7824 0 15.5648-3.072 21.0944-8.6016 5.5296-5.5296 8.6016-13.1072 8.6016-21.0944V158.9248c-0.2048-16.5888-13.312-29.696-29.4912-29.696m-189.2352 159.9488c19.6608 0 35.2256 15.7696 35.2256 35.2256 0 19.6608-15.7696 35.2256-35.2256 35.2256-9.4208 0-18.432-3.6864-24.9856-10.24-6.5536-6.5536-10.24-15.5648-10.24-24.9856-0.4096-19.0464 15.5648-35.2256 35.2256-35.2256" fill="#03A9F4" p-id="3251"></path></svg>