<?xml version="1.0" standalone="no"?><!DOCTYPE svg PUBLIC "-//W3C//DTD SVG 1.1//EN" "http://www.w3.org/Graphics/SVG/1.1/DTD/svg11.dtd"><svg t="1622636999863" class="icon" viewBox="0 0 1024 1024" version="1.1" xmlns="http://www.w3.org/2000/svg" p-id="2435" xmlns:xlink="http://www.w3.org/1999/xlink" width="200" height="200"><defs><style type="text/css"></style></defs><path d="M0 0m512 0l0 0q512 0 512 512l0 0q0 512-512 512l0 0q-512 0-512-512l0 0q0-512 512-512Z" fill="#499DF2" p-id="2436"></path><path d="M521.806769 542.404923a233.393231 233.393231 0 0 1 114.963693 30.050462l1.536 0.905846a25.481846 25.481846 0 0 0 25.6-44.110769 283.451077 283.451077 0 0 0-45.883077-21.188924 152.930462 152.930462 0 1 0-192.551385 0A285.617231 285.617231 0 0 0 236.307692 776.900923v4.844308a25.521231 25.521231 0 1 0 51.042462 0.196923v-0.196923-4.844308a234.417231 234.417231 0 0 1 234.456615-234.496z m0-255.133538a101.966769 101.966769 0 1 1 0 203.933538 101.966769 101.966769 0 0 1 0-203.933538z" fill="#FFFFFF" p-id="2437"></path><path d="M746.102154 645.12a25.481846 25.481846 0 0 0-25.481846-25.521231h-173.292308l6.971077-6.931692a25.481846 25.481846 0 0 0-36.076308-36.076308l-50.451692 50.451693a19.652923 19.652923 0 0 0-0.866462 0.94523l-0.393846 0.433231c-0.118154 0.157538-0.315077 0.315077-0.393846 0.472615l-0.512 0.630154-0.275692 0.393846-0.472616 0.59077a25.796923 25.796923 0 0 0-0.669538 1.063384l-0.236308 0.354462-0.393846 0.669538-0.236308 0.393846-0.354461 0.669539a6.104615 6.104615 0 0 0-0.236308 0.472615l-0.275692 0.630154-0.236308 0.512a19.889231 19.889231 0 0 0-0.196923 0.590769l-0.236308 0.630154-0.157538 0.472616-0.236308 0.708923-0.118154 0.43323-0.236307 0.787693-0.07877 0.393846-0.196923 0.787692-0.039384 0.433231-0.157539 0.787692-0.039384 0.512a18.510769 18.510769 0 0 0-0.118154 0.748308v0.630154l-0.078769 0.590769v2.56l0.039384 0.590769 0.039385 0.630154 0.118154 0.748308 0.039384 0.472615 0.157539 0.787693 0.039384 0.43323a18.392615 18.392615 0 0 0 0.196923 0.787693l0.07877 0.393846 0.236307 0.787692 0.118154 0.472615a13.312 13.312 0 0 0 0.236308 0.708924l0.157538 0.472615 0.236308 0.630154 0.196923 0.551384 0.236308 0.551385 0.275692 0.630154 0.236308 0.472615a10.909538 10.909538 0 0 0 0.354461 0.630154l0.236308 0.393846 0.393846 0.708923a6.695385 6.695385 0 0 1 0.196923 0.354462l0.472616 0.669538 0.236307 0.393846a8.704 8.704 0 0 0 0.472616 0.59077l0.275692 0.393846 0.472615 0.590769a20.598154 20.598154 0 0 0 0.393847 0.512l0.393846 0.393846c0.590769 0.669538 1.181538 1.260308 1.811692 1.811693l0.433231 0.393846 0.512 0.393846 0.590769 0.512 0.393846 0.275692 0.630154 0.472616 0.354462 0.236307 0.669538 0.472616 0.393846 0.196923 0.669539 0.393846 0.393846 0.236308 0.630154 0.354461 0.472615 0.196923 0.630154 0.315077 0.551385 0.236308 0.551384 0.196923 0.630154 0.236308 0.512 0.157538a13.312 13.312 0 0 0 0.708923 0.236308l0.393846 0.118154 0.787693 0.236307 0.393846 0.078769a16.541538 16.541538 0 0 0 0.827077 0.157539l0.393846 0.078769 0.827077 0.157539 0.472615 0.039384 0.787692 0.118154h0.630154l0.590769 0.078769h236.11077a25.481846 25.481846 0 0 0 25.481846-25.403077z m40.408615 84.952615v-0.630153c-0.078769-0.196923 0-0.393846-0.078769-0.630154l-0.078769-0.748308-0.078769-0.472615c0-0.275692-0.078769-0.551385-0.118154-0.787693l-0.07877-0.393846-0.196923-0.827077-0.078769-0.393846-0.196923-0.787692-0.118154-0.433231a25.915077 25.915077 0 0 0-0.236307-0.748308l-0.157539-0.472615a38.242462 38.242462 0 0 0-0.236308-0.630154l-0.236307-0.551385-0.236308-0.551384-0.275692-0.630154-0.236308-0.472615-0.315077-0.630154-0.236308-0.393846-0.393846-0.708923-0.236307-0.354462a25.796923 25.796923 0 0 0-0.433231-0.669538l-0.236308-0.393847a10.318769 10.318769 0 0 0-0.472615-0.590769l-0.315077-0.393846-0.472616-0.590769-0.393846-0.512-0.393846-0.433231a22.370462 22.370462 0 0 0-1.811692-1.772308l-0.393846-0.393846-0.551385-0.433231a31.822769 31.822769 0 0 0-0.551385-0.472615l-0.393846-0.275692-0.630154-0.472616-0.393846-0.275692-0.669538-0.393846-0.354462-0.236308a14.887385 14.887385 0 0 0-0.708923-0.393846l-0.393846-0.236308-0.630154-0.354461-0.433231-0.236308-0.669538-0.275692-0.512-0.236308-0.551385-0.196923-0.669538-0.236308-0.472616-0.157538-0.708923-0.236308-0.43323-0.118154a15.478154 15.478154 0 0 0-0.787693-0.236307l-0.393846-0.07877-0.787692-0.196923-0.433231-0.039384-0.787692-0.157539-0.512-0.039384-0.748308-0.118154-0.630154-0.039385-0.590769-0.039384-1.260308-0.039385h-234.220307a25.481846 25.481846 0 1 0 0 50.963692h172.662153l-6.971076 6.931693a25.481846 25.481846 0 0 0 36.036923 36.036923l50.451692-50.412308 0.866461-0.945231 0.393847-0.433231a8.585846 8.585846 0 0 0 0.43323-0.512l0.472616-0.590769 0.275692-0.393846 0.472615-0.630154 0.275693-0.354461 0.393846-0.669539c0.118154-0.118154 0.196923-0.236308 0.236308-0.393846l0.393846-0.669538 0.236307-0.393847 0.354462-0.630153a5.12 5.12 0 0 0 0.236308-0.472616l0.275692-0.630154 0.236308-0.551384a19.534769 19.534769 0 0 0 0.196923-0.551385l0.236307-0.630154 0.157539-0.512 0.236308-0.708923 0.118153-0.393846 0.236308-0.787692 0.078769-0.393846 0.196923-0.827077 0.07877-0.393847c0-0.315077 0.078769-0.551385 0.118154-0.827076 0-0.157538 0-0.315077 0.078769-0.472616l0.078769-0.787692v-0.630154c0.039385-0.196923 0-0.393846 0.078769-0.590769v-1.260308a8.861538 8.861538 0 0 0 0-1.260308z" fill="#FFFFFF" p-id="2438"></path></svg>