<?xml version="1.0" standalone="no"?><!DOCTYPE svg PUBLIC "-//W3C//DTD SVG 1.1//EN" "http://www.w3.org/Graphics/SVG/1.1/DTD/svg11.dtd"><svg t="1637933182417" class="icon" viewBox="0 0 1024 1024" version="1.1" xmlns="http://www.w3.org/2000/svg" p-id="5509" xmlns:xlink="http://www.w3.org/1999/xlink" width="200" height="200"><defs><style type="text/css"></style></defs><path d="M512 68.266667C268.049067 68.266667 68.266667 238.08 68.266667 450.56l0.068266 6.638933c2.833067 143.445333 97.723733 270.4384 241.408 333.789867l4.778667 2.048V921.6l0.1024 2.6112c1.8944 26.504533 32.768 41.0624 54.545067 24.661333l154.4192-116.155733 3.003733-0.068267C763.869867 826.043733 955.733333 658.7904 955.733333 450.56 955.733333 238.08 755.950933 68.266667 512 68.266667z m0 68.266666c208.4864 0 375.466667 141.9264 375.466667 314.026667 0 172.100267-166.980267 314.026667-375.466667 314.026667l-3.157333 0.1536a34.133333 34.133333 0 0 0-17.3568 6.7072l-108.6976 81.732266v-83.2512a34.133333 34.133333 0 0 0-22.289067-32.017066C224.938667 687.735467 136.533333 575.317333 136.533333 450.56 136.533333 278.459733 303.5136 136.533333 512 136.533333z" fill="#444444" p-id="5510"></path><path d="M290.133333 477.866667a34.133333 34.133333 0 0 1 30.344534 18.500266l-1.621334-2.423466c38.126933 58.7776 95.8976 92.8256 165.512534 94.72l6.161066 0.085333v68.266667c-93.866667 0-173.687467-44.373333-225.3824-120.541867l-3.566933-5.358933 0.170667-0.119467A34.133333 34.133333 0 0 1 290.133333 477.866667z" fill="#00B386" p-id="5511"></path></svg>