<?xml version="1.0" standalone="no"?><!DOCTYPE svg PUBLIC "-//W3C//DTD SVG 1.1//EN" "http://www.w3.org/Graphics/SVG/1.1/DTD/svg11.dtd"><svg t="1652624048206" class="icon" viewBox="0 0 1024 1024" version="1.1" xmlns="http://www.w3.org/2000/svg" p-id="3573" xmlns:xlink="http://www.w3.org/1999/xlink" width="200" height="200"><defs><style type="text/css">@font-face { font-family: feedback-iconfont; src: url("//at.alicdn.com/t/font_1031158_u69w8yhxdu.woff2?t=1630033759944") format("woff2"), url("//at.alicdn.com/t/font_1031158_u69w8yhxdu.woff?t=1630033759944") format("woff"), url("//at.alicdn.com/t/font_1031158_u69w8yhxdu.ttf?t=1630033759944") format("truetype"); }
</style></defs><path d="M512.267783 1024a511.992582 511.992582 0 1 1 511.732291-511.732291 512.513164 512.513164 0 0 1-511.732291 511.732291z m0-971.666654a459.934363 459.934363 0 1 0 459.674072 459.934363A460.194654 460.194654 0 0 0 512.267783 52.333346z" p-id="3574"></path><path d="M487.800421 177.793654m24.467362 0l-0.260291 0q24.467363 0 24.467363 24.467363l0 307.403781q0 24.467363-24.467363 24.467363l0.260291 0q-24.467363 0-24.467362-24.467363l0-307.403781q0-24.467363 24.467362-24.467363Z" p-id="3575"></path><path d="M501.069907 477.733153m22.022847 10.66049l174.074208 84.263233q22.022847 10.66049 11.362357 32.683337l0 0q-10.66049 22.022847-32.683337 11.362358l-174.074207-84.263234q-22.022847-10.66049-11.362358-32.683337l0 0q10.66049-22.022847 32.683337-11.362357Z" p-id="3576"></path></svg>