<?xml version="1.0" standalone="no"?><!DOCTYPE svg PUBLIC "-//W3C//DTD SVG 1.1//EN" "http://www.w3.org/Graphics/SVG/1.1/DTD/svg11.dtd"><svg t="1604417057696" class="icon" viewBox="0 0 1024 1024" version="1.1" xmlns="http://www.w3.org/2000/svg" p-id="6235" xmlns:xlink="http://www.w3.org/1999/xlink" width="128" height="128"><defs><style type="text/css"></style></defs><path d="M446.577778 897.820444V759.239111l117.077333 62.350222z" fill="#A3A3A3" p-id="6236"></path><path d="M235.178667 648.874667l514.389333 277.845333 84.764444-618.951111z" fill="#A3A3A3" p-id="6237"></path><path d="M288.995556 541.240889L803.384889 819.2l84.764444-618.951111z" fill="#FFD44D" p-id="6238"></path><path d="M300.942222 439.296c-1.820444-1.820444-4.437333-2.844444-7.168-2.844444 1.365333 0 2.730667 0.227556 3.982222 0.682666 1.251556 0.568889 2.275556 1.251556 3.185778 2.161778zM304.128 446.464c0 1.365333-0.227556 2.730667-0.682667 3.982222 0.341333-1.251556 0.682667-2.616889 0.682667-3.982222zM183.978667 549.888c0.113778 5.575111 4.664889 10.012444 10.353777 10.012444 5.575111-0.113778 10.126222-4.664889 10.012445-10.353777-0.113778-5.575111-4.664889-10.126222-10.353778-10.012445-5.575111 0.113778-10.012444 4.778667-10.012444 10.353778zM235.52 599.722667c0.113778 5.575111 4.664889 10.012444 10.353778 10.012444 5.575111-0.113778 10.012444-4.664889 10.012444-10.353778-0.113778-5.575111-4.664889-10.126222-10.353778-10.012444-5.575111 0.227556-10.012444 4.778667-10.012444 10.353778zM233.927111 498.346667c0.113778 5.575111 4.664889 10.126222 10.353778 10.012444 5.575111-0.113778 10.012444-4.664889 10.012444-10.353778-0.113778-5.575111-4.664889-10.126222-10.353777-10.012444-5.688889 0.113778-10.126222 4.778667-10.012445 10.353778zM307.427556 649.329778c0-2.844444-1.251556-5.347556-3.072-7.168 1.820444 1.820444 2.958222 4.323556 3.072 7.168zM304.128 446.464c0-1.365333-0.341333-2.730667-0.910222-3.982222 0.568889 1.251556 0.796444 2.503111 0.910222 3.982222z" fill="#231B3B" p-id="6239"></path><path d="M300.942222 439.296c0.910222 0.910222 1.706667 1.934222 2.275556 3.185778 0.568889 1.251556 0.796444 2.503111 0.910222 3.982222 0 1.365333-0.227556 2.730667-0.682667 3.982222l0 0c0.455111-1.251556 0.796444-2.616889 0.682667-3.982222 0-1.365333-0.341333-2.730667-0.910222-3.982222-0.568889-1.137778-1.251556-2.275556-2.275556-3.185778-0.910222-0.910222-2.048-1.592889-3.299555-2.161778 1.251556 0.568889 2.389333 1.251556 3.299555 2.161778zM510.293333 646.030222zM441.799111 799.288889c0.113778 5.575111 4.664889 10.012444 10.353778 10.012444 5.575111-0.113778 10.012444-4.664889 10.012444-10.353777-0.113778-5.575111-4.664889-10.126222-10.353777-10.012445-5.688889 0.113778-10.126222 4.778667-10.012445 10.353778zM440.092444 697.912889c0.113778 5.575111 4.664889 10.126222 10.353778 10.012444 5.575111-0.113778 10.012444-4.664889 10.012445-10.353777-0.113778-5.575111-4.664889-10.126222-10.353778-10.012445-5.575111 0.113778-10.126222 4.664889-10.012445 10.353778zM503.921778 435.996444c-1.820444-1.820444-4.437333-2.844444-7.168-2.844444 1.365333 0 2.730667 0.227556 3.982222 0.682667 1.137778 0.568889 2.161778 1.251556 3.185778 2.161777zM506.993778 443.164444zM508.586667 544.540444c0.113778 5.575111-4.323556 10.24-10.012445 10.353778 5.688889-0.113778 10.126222-4.778667 10.012445-10.353778-0.113778-5.575111-4.664889-10.126222-10.353778-10.012444 5.688889 0 10.24 4.437333 10.353778 10.012444zM395.264 434.858667c2.844444 0 5.347556 1.024 7.281778 2.844444-1.934222-1.820444-4.551111-2.958222-7.281778-2.844444-2.844444 0-5.347556 1.251556-7.168 3.072 1.820444-1.934222 4.323556-3.072 7.168-3.072zM385.251556 445.098667c0 1.365333 0.341333 2.730667 0.910222 3.982222-0.568889-1.251556-0.910222-2.616889-0.910222-3.982222zM386.844444 546.588444c0.113778 5.575111 4.664889 10.012444 10.353778 10.012445 5.575111-0.113778 10.126222-4.664889 10.012445-10.353778-0.113778-5.575111-4.664889-10.126222-10.353778-10.012444-5.575111 0.113778-10.012444 4.664889-10.012445 10.353777zM438.499556 596.423111c0.113778 5.575111 4.664889 10.012444 10.353777 10.012445 5.575111-0.113778 10.012444-4.664889 10.012445-10.353778-0.113778-5.575111-4.664889-10.126222-10.353778-10.012445-5.688889 0.113778-10.126222 4.778667-10.012444 10.353778zM436.792889 495.047111c0.113778 5.575111 4.664889 10.126222 10.353778 10.012445 5.575111-0.113778 10.012444-4.664889 10.012444-10.353778-0.113778-5.575111-4.664889-10.126222-10.353778-10.012445-5.688889 0.113778-10.126222 4.664889-10.012444 10.353778zM510.293333 646.030222c0-2.844444-1.251556-5.347556-3.072-7.168 1.820444 1.820444 2.958222 4.323556 3.072 7.168z" fill="#231B3B" p-id="6240"></path><path d="M510.293333 646.030222c0 1.365333-0.227556 2.730667-0.682666 3.982222l0 0c0.455111-1.251556 0.682667-2.616889 0.682666-3.982222 0-2.844444-1.251556-5.347556-3.072-7.168-1.820444-1.820444-4.437333-2.844444-7.168-2.844444 2.844444 0 5.347556 1.024 7.168 2.844444 1.820444 1.820444 2.958222 4.323556 3.072 7.168zM283.761778 446.805333c0 1.365333 0.341333 2.730667 0.910222 3.982223-0.568889-1.251556-0.910222-2.616889-0.910222-3.982223zM286.606222 439.523556c0.910222-0.910222 1.934222-1.706667 3.185778-2.275556 1.251556-0.568889 2.503111-0.796444 3.982222-0.910222-2.844444 0.227556-5.347556 1.365333-7.168 3.185778z" fill="#231B3B" p-id="6241"></path><path d="M293.774222 436.451556c-1.365333 0-2.730667 0.341333-3.982222 0.910222 1.251556-0.568889 2.616889-0.910222 3.982222-0.910222zM304.128 446.464c0 1.365333-0.227556 2.730667-0.682667 3.982222 0.341333-1.251556 0.682667-2.616889 0.682667-3.982222zM297.756444 437.248c-1.251556-0.455111-2.503111-0.796444-3.982222-0.682667 2.844444 0 5.347556 1.024 7.168 2.844445-0.910222-1.024-2.048-1.706667-3.185778-2.161778zM326.883556 538.055111c0.113778 5.575111 4.664889 10.012444 10.353777 10.012445 5.575111-0.113778 10.012444-4.664889 10.012445-10.353778-0.113778-5.575111-4.664889-10.126222-10.353778-10.012445-5.688889 0.113778-10.126222 4.778667-10.012444 10.353778zM304.355556 642.161778c1.820444 1.820444 3.072 4.323556 3.072 7.168-0.113778-2.844444-1.251556-5.347556-3.072-7.168zM505.287111 341.674667c0.113778 5.575111-4.323556 10.24-10.012444 10.353777 5.688889-0.113778 10.126222-4.778667 10.012444-10.353777-0.113778-5.575111-4.664889-10.126222-10.353778-10.012445 5.688889 0 10.24 4.437333 10.353778 10.012445zM435.086222 393.557333c0.113778 5.575111 4.664889 10.012444 10.353778 10.012445 5.575111-0.113778 10.012444-4.664889 10.012444-10.353778-0.113778-5.575111-4.664889-10.126222-10.353777-10.012444-5.575111 0.113778-10.126222 4.778667-10.012445 10.353777zM506.993778 443.164444c0-1.365333-0.341333-2.730667-0.910222-3.982222 0.568889 1.251556 0.796444 2.503111 0.910222 3.982222zM503.921778 435.996444c0.910222 0.910222 1.706667 1.934222 2.275555 3.185778 0.568889 1.251556 0.796444 2.503111 0.910223 3.982222 0 1.365333-0.227556 2.730667-0.682667 3.982223l0 0c0.455111-1.251556 0.796444-2.616889 0.682667-3.982223 0-1.365333-0.341333-2.730667-0.910223-3.982222-0.682667-1.251556-1.365333-2.275556-2.275555-3.185778-0.910222-0.910222-2.048-1.592889-3.299556-2.161777 1.251556 0.568889 2.275556 1.251556 3.299556 2.161777zM405.504 444.757333c0-1.365333-0.341333-2.730667-0.910222-3.982222 0.568889 1.251556 0.910222 2.616889 0.910222 3.982222zM385.251556 445.098667zM283.761778 446.805333c0-1.365333 0.227556-2.730667 0.682666-3.982222-0.455111 1.251556-0.682667 2.503111-0.682666 3.982222zM304.128 446.464c0-1.365333-0.341333-2.730667-0.910222-3.982222 0.568889 1.251556 0.796444 2.503111 0.910222 3.982222z" fill="#231B3B" p-id="6242"></path><path d="M284.672 450.673778c-0.568889-1.251556-0.796444-2.503111-0.910222-3.982222 0-1.365333 0.227556-2.730667 0.682666-3.982223 0.455111-1.251556 1.251556-2.275556 2.161778-3.299555 0.910222-0.910222 1.934222-1.706667 3.185778-2.275556-1.251556 0.568889-2.275556 1.251556-3.185778 2.275556-0.910222 0.910222-1.592889 2.048-2.161778 3.299555-0.455111 1.251556-0.796444 2.503111-0.682666 3.982223 0 1.479111 0.341333 2.844444 0.910222 3.982222 1.592889 3.640889 5.233778 6.144 9.443556 6.030222-4.209778 0.113778-7.850667-2.389333-9.443556-6.030222z" fill="#231B3B" p-id="6243"></path><path d="M293.774222 436.451556c-1.365333 0-2.730667 0.341333-3.982222 0.910222s-2.275556 1.251556-3.185778 2.275555c1.820444-1.934222 4.323556-3.072 7.168-3.185777zM284.672 450.673778c-0.568889-1.251556-0.796444-2.503111-0.910222-3.982222 0.113778 1.479111 0.341333 2.844444 0.910222 3.982222z" fill="#231B3B" p-id="6244"></path><path d="M283.761778 446.805333c0-1.365333 0.227556-2.730667 0.682666-3.982222-0.455111 1.251556-0.682667 2.503111-0.682666 3.982222z" fill="#231B3B" p-id="6245"></path><path d="M303.331556 450.446222c0.455111-1.251556 0.796444-2.616889 0.682666-3.982222 0-1.365333-0.341333-2.730667-0.910222-3.982222s-1.251556-2.275556-2.275556-3.185778c-1.820444-1.820444-4.437333-2.844444-7.168-2.844444-2.844444 0-5.347556 1.251556-7.168 3.072-0.910222 0.910222-1.592889 2.048-2.161777 3.299555-0.455111 1.251556-0.796444 2.503111-0.682667 3.982222 0 1.365333 0.341333 2.730667 0.910222 3.982223 1.592889 3.640889 5.233778 6.144 9.443556 6.030222 4.323556-0.113778 7.850667-2.730667 9.329778-6.371556zM611.783111 644.323556c0 1.365333-0.227556 2.730667-0.682667 3.982222 0.341333-1.251556 0.682667-2.616889 0.682667-3.982222zM591.416889 644.664889c0 1.365333 0.341333 2.730667 0.910222 3.982222-0.568889-1.251556-0.910222-2.616889-0.910222-3.982222zM593.123556 746.154667c0.113778 5.575111 4.664889 10.012444 10.353777 10.012444 5.575111-0.113778 10.126222-4.664889 10.012445-10.353778-0.113778-5.575111-4.664889-10.126222-10.353778-10.012444-5.688889 0.113778-10.126222 4.664889-10.012444 10.353778zM490.040889 646.371556c0 1.365333 0.341333 2.730667 0.910222 3.982222-0.568889-1.251556-0.910222-2.616889-0.910222-3.982222zM510.293333 646.030222zM598.129778 431.445333c2.844444 0 5.347556 1.024 7.281778 2.844445-1.934222-1.706667-4.551111-2.844444-7.281778-2.844445-2.844444 0-5.347556 1.251556-7.168 3.072 1.820444-1.820444 4.323556-2.958222 7.168-3.072zM588.117333 441.799111c0 1.365333 0.341333 2.730667 0.910223 3.982222-0.568889-1.251556-0.910222-2.616889-0.910223-3.982222zM608.369778 441.457778c0 1.365333-0.227556 2.730667-0.682667 3.982222 0.455111-1.251556 0.796444-2.616889 0.682667-3.982222zM589.824 543.175111c0.113778 5.575111 4.664889 10.012444 10.353778 10.012445 5.575111-0.113778 10.126222-4.664889 10.012444-10.353778-0.113778-5.575111-4.664889-10.126222-10.353778-10.012445-5.688889 0.227556-10.126222 4.778667-10.012444 10.353778zM539.875556 594.830222c0.113778 5.575111 4.664889 10.012444 10.353777 10.012445 5.575111-0.113778 10.012444-4.664889 10.012445-10.353778-0.113778-5.575111-4.664889-10.126222-10.353778-10.012445-5.688889 0.113778-10.126222 4.664889-10.012444 10.353778zM538.168889 493.340444c0.113778 5.575111 4.664889 10.126222 10.353778 10.012445 5.575111-0.113778 10.012444-4.664889 10.012444-10.353778-0.113778-5.575111-4.664889-10.126222-10.353778-10.012444-5.575111 0.113778-10.012444 4.778667-10.012444 10.353777zM591.416889 644.664889c0-2.844444 1.024-5.347556 2.844444-7.168-1.820444 1.820444-2.844444 4.323556-2.844444 7.168zM611.783111 644.323556c0-2.844444-1.251556-5.347556-3.072-7.168 1.820444 1.820444 2.958222 4.323556 3.072 7.168z" fill="#231B3B" p-id="6246"></path><path d="M591.416889 644.664889c0 1.365333 0.341333 2.730667 0.910222 3.982222 1.592889 3.640889 5.233778 6.144 9.443556 6.030222 4.209778-0.113778 7.736889-2.730667 9.216-6.371555 0.455111-1.251556 0.796444-2.616889 0.682666-3.982222 0-2.844444-1.251556-5.347556-3.072-7.168-1.820444-1.820444-4.437333-2.844444-7.281777-2.844445-2.844444 0-5.347556 1.251556-7.168 3.072-1.706667 1.934222-2.730667 4.437333-2.730667 7.281778zM486.627556 443.392c0 1.365333 0.341333 2.730667 0.910222 3.982222-0.568889-1.137778-0.796444-2.503111-0.910222-3.982222zM489.472 436.224c0.910222-0.910222 1.934222-1.706667 3.185778-2.275556 1.251556-0.568889 2.503111-0.796444 3.982222-0.910222-2.844444 0.113778-5.347556 1.365333-7.168 3.185778z" fill="#231B3B" p-id="6247"></path><path d="M496.64 433.152c-1.365333 0-2.730667 0.341333-3.982222 0.910222 1.251556-0.568889 2.616889-0.910222 3.982222-0.910222zM500.622222 433.834667c-1.251556-0.455111-2.503111-0.796444-3.982222-0.682667 2.844444 0 5.347556 1.024 7.168 2.844444-0.910222-0.910222-1.934222-1.592889-3.185778-2.161777zM506.993778 443.164444zM488.334222 544.881778c0.113778 5.575111 4.664889 10.012444 10.353778 10.012444-5.688889 0.113778-10.24-4.437333-10.353778-10.012444-0.113778-5.575111 4.323556-10.24 10.012445-10.353778-5.688889 0.113778-10.126222 4.778667-10.012445 10.353778z" fill="#231B3B" p-id="6248"></path><path d="M488.334222 544.881778c0.113778 5.575111 4.664889 10.012444 10.353778 10.012444 5.575111-0.113778 10.012444-4.664889 10.012444-10.353778-0.113778-5.575111-4.664889-10.126222-10.353777-10.012444-5.688889 0.113778-10.126222 4.778667-10.012445 10.353778zM490.040889 646.371556c0-2.844444 1.024-5.347556 2.844444-7.168-1.820444 1.820444-2.958222 4.323556-2.844444 7.168zM507.221333 638.862222c1.820444 1.820444 3.072 4.323556 3.072 7.168-0.113778-2.844444-1.251556-5.347556-3.072-7.168z" fill="#231B3B" p-id="6249"></path><path d="M492.885333 639.089778c-1.820444 1.820444-2.844444 4.437333-2.844444 7.168 0 1.365333 0.341333 2.730667 0.910222 3.982222 1.592889 3.640889 5.233778 6.144 9.443556 6.030222-4.209778 0.113778-7.850667-2.389333-9.443556-6.030222-0.568889-1.251556-0.796444-2.503111-0.910222-3.982222-0.113778-2.730667 1.024-5.233778 2.844444-7.168 1.820444-1.820444 4.323556-3.072 7.168-3.072-2.844444 0-5.347556 1.251556-7.168 3.072z" fill="#231B3B" p-id="6250"></path><path d="M490.040889 646.371556c0 1.365333 0.341333 2.730667 0.910222 3.982222-0.568889-1.251556-0.910222-2.616889-0.910222-3.982222zM490.040889 646.371556c0-2.844444 1.024-5.347556 2.844444-7.168-1.820444 1.820444-2.958222 4.323556-2.844444 7.168z" fill="#231B3B" p-id="6251"></path><path d="M490.040889 646.371556c0 1.365333 0.341333 2.730667 0.910222 3.982222 1.592889 3.640889 5.233778 6.144 9.443556 6.030222 4.209778-0.113778 7.736889-2.730667 9.216-6.371556 0.455111-1.251556 0.796444-2.616889 0.682666-3.982222 0-2.844444-1.251556-5.347556-3.072-7.168-1.820444-1.820444-4.437333-2.844444-7.168-2.844444-2.844444 0-5.347556 1.251556-7.168 3.072-1.820444 1.934222-2.958222 4.437333-2.844444 7.281778zM542.947556 408.917333c0.113778 5.575111 4.664889 10.012444 10.353777 10.012445 5.575111-0.113778 10.012444-4.664889 10.012445-10.353778-0.113778-5.575111-4.664889-10.126222-10.353778-10.012444-5.688889 0.113778-10.126222 4.778667-10.012444 10.353777zM608.369778 441.457778c0-1.365333-0.341333-2.730667-0.910222-3.982222 0.568889 1.251556 0.910222 2.616889 0.910222 3.982222zM588.117333 441.799111z" fill="#231B3B" p-id="6252"></path><path d="M590.961778 434.517333c-0.910222 0.910222-1.592889 2.048-2.161778 3.299556-0.455111 1.251556-0.796444 2.503111-0.682667 3.982222 0 1.365333 0.341333 2.730667 0.910223 3.982222 1.592889 3.640889 5.233778 6.144 9.443555 6.030223 4.209778-0.113778 7.736889-2.730667 9.216-6.371556 0.455111-1.251556 0.796444-2.616889 0.682667-3.982222 0-1.365333-0.341333-2.730667-0.910222-3.982222s-1.251556-2.275556-2.275556-3.185778c-1.820444-1.820444-4.437333-2.844444-7.281778-2.844445-2.616889 0.113778-5.12 1.251556-6.940444 3.072zM485.034667 342.016c0.113778 5.575111 4.664889 10.012444 10.353777 10.012444-5.688889 0-10.24-4.437333-10.353777-10.012444-0.113778-5.575111 4.323556-10.24 10.012444-10.353778-5.688889 0.113778-10.126222 4.778667-10.012444 10.353778z" fill="#231B3B" p-id="6253"></path><path d="M485.034667 342.016c0.113778 5.575111 4.664889 10.012444 10.353777 10.012444 5.575111-0.113778 10.012444-4.664889 10.012445-10.353777-0.113778-5.575111-4.664889-10.126222-10.353778-10.012445-5.688889 0.113778-10.126222 4.778667-10.012444 10.353778zM486.627556 443.392zM506.993778 443.164444c0-1.365333-0.341333-2.730667-0.910222-3.982222 0.568889 1.251556 0.796444 2.503111 0.910222 3.982222zM487.537778 447.374222c-0.568889-1.251556-0.796444-2.503111-0.910222-3.982222 0-1.365333 0.227556-2.730667 0.682666-3.982222 0.455111-1.251556 1.251556-2.275556 2.161778-3.299556 0.910222-0.910222 1.934222-1.706667 3.185778-2.275555-1.251556 0.568889-2.275556 1.251556-3.185778 2.275555-0.910222 0.910222-1.592889 2.048-2.161778 3.299556-0.455111 1.251556-0.796444 2.503111-0.682666 3.982222 0.113778 1.479111 0.341333 2.844444 0.910222 3.982222 1.592889 3.640889 5.233778 6.144 9.443555 6.030222-4.209778 0.113778-7.850667-2.389333-9.443555-6.030222z" fill="#231B3B" p-id="6254"></path><path d="M496.64 433.152c-1.365333 0-2.730667 0.341333-3.982222 0.910222s-2.275556 1.251556-3.185778 2.275556c1.820444-1.934222 4.323556-3.185778 7.168-3.185778zM487.537778 447.374222c-0.568889-1.251556-0.796444-2.503111-0.910222-3.982222 0.113778 1.479111 0.341333 2.844444 0.910222 3.982222zM486.627556 443.392c0-1.365333 0.227556-2.730667 0.682666-3.982222-0.341333 1.251556-0.682667 2.616889-0.682666 3.982222z" fill="#231B3B" p-id="6255"></path><path d="M506.197333 447.032889c0.455111-1.251556 0.796444-2.616889 0.682667-3.982222 0-1.365333-0.341333-2.730667-0.910222-3.982223s-1.251556-2.275556-2.275556-3.185777c-1.820444-1.820444-4.437333-2.844444-7.168-2.844445-2.844444 0-5.347556 1.251556-7.168 3.072-0.910222 0.910222-1.592889 2.048-2.161778 3.299556-0.455111 1.251556-0.796444 2.503111-0.682666 3.982222 0 1.365333 0.341333 2.730667 0.910222 3.982222 1.592889 3.640889 5.233778 6.144 9.443556 6.030222 4.323556 0 7.850667-2.616889 9.329777-6.371555zM812.145778 641.024zM813.852444 742.513778c0.113778 5.575111-4.323556 10.24-10.012444 10.353778 5.575111-0.227556 10.126222-4.778667 10.012444-10.353778-0.113778-5.575111-4.664889-10.126222-10.353777-10.012445 5.575111-0.113778 10.24 4.437333 10.353777 10.012445zM710.769778 642.730667zM690.403556 643.072c0 1.365333 0.341333 2.730667 0.910222 3.982222-0.568889-1.251556-0.796444-2.616889-0.910222-3.982222zM692.110222 744.448c0.113778 5.575111 4.664889 10.012444 10.353778 10.012444 5.575111-0.113778 10.126222-4.664889 10.012444-10.353777-0.113778-5.575111-4.664889-10.126222-10.353777-10.012445-5.688889 0.113778-10.126222 4.778667-10.012445 10.353778zM743.651556 794.396444c0.113778 5.575111 4.664889 10.012444 10.353777 10.012445 5.575111-0.113778 10.012444-4.664889 10.012445-10.353778-0.113778-5.575111-4.664889-10.126222-10.353778-10.012444-5.575111 0.113778-10.126222 4.778667-10.012444 10.353777zM741.944889 692.906667c0.113778 5.575111 4.664889 10.126222 10.353778 10.012444 5.575111-0.113778 10.012444-4.664889 10.012444-10.353778-0.113778-5.575111-4.664889-10.126222-10.353778-10.012444-5.575111 0.113778-10.012444 4.778667-10.012444 10.353778zM642.275556 795.989333c0.113778 5.575111 4.664889 10.012444 10.353777 10.012445 5.575111-0.113778 10.012444-4.664889 10.012445-10.353778-0.113778-5.575111-4.664889-10.126222-10.353778-10.012444-5.688889 0.227556-10.126222 4.778667-10.012444 10.353777zM640.568889 694.613333c0.113778 5.575111 4.664889 10.126222 10.353778 10.012445 5.575111-0.113778 10.012444-4.664889 10.012444-10.353778-0.113778-5.575111-4.664889-10.126222-10.353778-10.012444-5.688889 0.113778-10.126222 4.778667-10.012444 10.353777zM808.846222 438.158222zM805.774222 430.990222c-1.820444-1.820444-4.437333-2.844444-7.168-2.844444 1.365333 0 2.730667 0.227556 3.982222 0.682666 1.137778 0.568889 2.275556 1.365333 3.185778 2.161778zM810.552889 539.648c0.113778 5.575111-4.323556 10.24-10.012445 10.353778 5.575111-0.227556 10.012444-4.778667 10.012445-10.353778-0.113778-5.575111-4.664889-10.126222-10.353778-10.012444 5.575111-0.113778 10.24 4.323556 10.353778 10.012444zM697.116444 429.852444c2.844444 0 5.347556 1.024 7.281778 2.844445-1.934222-1.820444-4.551111-2.844444-7.281778-2.844445-2.844444 0-5.347556 1.251556-7.168 3.072 1.820444-1.820444 4.323556-3.072 7.168-3.072zM707.470222 439.864889c0 1.365333-0.227556 2.730667-0.682666 3.982222 0.341333-1.251556 0.682667-2.616889 0.682666-3.982222zM687.104 440.206222c0 1.365333 0.341333 2.730667 0.910222 3.982222-0.568889-1.251556-0.910222-2.616889-0.910222-3.982222zM688.810667 541.582222c0.113778 5.575111 4.664889 10.012444 10.353777 10.012445 5.575111-0.113778 10.126222-4.664889 10.012445-10.353778-0.113778-5.575111-4.664889-10.126222-10.353778-10.012445-5.688889 0.113778-10.126222 4.778667-10.012444 10.353778zM740.352 591.530667c0.113778 5.575111 4.664889 10.012444 10.353778 10.012444 5.575111-0.113778 10.012444-4.664889 10.012444-10.353778-0.113778-5.575111-4.664889-10.126222-10.353778-10.012444-5.688889 0.113778-10.126222 4.664889-10.012444 10.353778zM738.645333 490.040889c0.113778 5.575111 4.664889 10.126222 10.353778 10.012444 5.575111-0.113778 10.012444-4.664889 10.012445-10.353777-0.113778-5.575111-4.664889-10.126222-10.353778-10.012445-5.575111 0.113778-10.126222 4.778667-10.012445 10.353778zM638.862222 593.123556c0.113778 5.575111 4.664889 10.012444 10.353778 10.012444 5.575111-0.113778 10.012444-4.664889 10.012444-10.353778-0.113778-5.575111-4.664889-10.126222-10.353777-10.012444-5.575111 0.113778-10.126222 4.778667-10.012445 10.353778zM637.269333 491.747556c0.113778 5.575111 4.664889 10.126222 10.353778 10.012444 5.575111-0.113778 10.012444-4.664889 10.012445-10.353778-0.113778-5.575111-4.664889-10.126222-10.353778-10.012444-5.688889 0.113778-10.126222 4.664889-10.012445 10.353778zM812.145778 641.024c0-2.844444-1.251556-5.347556-3.072-7.168 1.820444 1.820444 3.072 4.437333 3.072 7.168z" fill="#231B3B" p-id="6256"></path><path d="M812.145778 641.024c0 1.365333-0.227556 2.730667-0.682667 3.982222l0 0c0.455111-1.251556 0.682667-2.616889 0.682667-3.982222 0-2.844444-1.251556-5.347556-3.072-7.168-1.820444-1.820444-4.437333-2.844444-7.168-2.844444 2.844444 0 5.347556 1.024 7.168 2.844444 1.820444 1.820444 3.072 4.437333 3.072 7.168zM690.403556 643.072c0-2.844444 1.024-5.347556 2.844444-7.168-1.706667 1.820444-2.844444 4.323556-2.844444 7.168zM710.769778 642.730667c0-2.844444-1.251556-5.347556-3.072-7.168 1.820444 1.820444 2.958222 4.323556 3.072 7.168z" fill="#231B3B" p-id="6257"></path><path d="M690.403556 643.072c0 1.365333 0.341333 2.730667 0.910222 3.982222 1.592889 3.640889 5.233778 6.144 9.443555 6.030222 4.209778-0.113778 7.736889-2.730667 9.216-6.371555 0.455111-1.251556 0.796444-2.616889 0.682667-3.982222 0-2.844444-1.251556-5.347556-3.072-7.168-1.820444-1.820444-4.437333-2.844444-7.281778-2.844445-2.844444 0-5.347556 1.251556-7.168 3.072-1.592889 1.934222-2.730667 4.437333-2.730666 7.281778zM799.516444 244.736c3.640889-1.592889 6.144-5.233778 6.030223-9.443556 0 4.209778-2.503111 7.850667-6.030223 9.443556zM804.636444 231.310222c-1.024-2.389333-3.072-4.323556-5.461333-5.347555 2.389333 1.024 4.437333 2.958222 5.461333 5.347555zM807.139556 336.782222c0.113778 5.575111-4.323556 10.24-10.012445 10.353778 5.688889-0.227556 10.126222-4.778667 10.012445-10.353778-0.113778-5.575111-4.664889-10.126222-10.353778-10.012444 5.688889-0.113778 10.353778 4.323556 10.353778 10.012444zM698.026667 246.442667c3.640889-1.592889 6.144-5.233778 6.030222-9.443556 0.113778 4.209778-2.389333 7.850667-6.030222 9.443556zM703.260444 233.016889c-1.024-2.389333-3.072-4.323556-5.461333-5.347556 2.389333 1.024 4.323556 2.958222 5.461333 5.347556zM683.804444 237.340444c0.113778 4.209778 2.730667 7.736889 6.371556 9.216-3.640889-1.479111-6.257778-5.12-6.371556-9.216zM689.834667 227.896889c-2.389333 1.024-4.323556 3.072-5.347556 5.461333 1.024-2.503111 2.958222-4.437333 5.347556-5.461333zM685.511111 338.716444c0.113778 5.575111 4.664889 10.012444 10.353778 10.012445 5.575111-0.113778 10.126222-4.664889 10.012444-10.353778-0.113778-5.575111-4.664889-10.126222-10.353777-10.012444-5.688889 0.113778-10.126222 4.778667-10.012445 10.353777zM737.052444 388.664889c0.113778 5.575111 4.664889 10.012444 10.353778 10.012444 5.575111-0.113778 10.012444-4.664889 10.012445-10.353777-0.113778-5.575111-4.664889-10.126222-10.353778-10.012445-5.688889 0.113778-10.126222 4.664889-10.012445 10.353778zM735.345778 287.175111c0.113778 5.575111 4.664889 10.126222 10.353778 10.012445 5.575111-0.113778 10.012444-4.664889 10.012444-10.353778-0.113778-5.575111-4.664889-10.126222-10.353778-10.012445-5.688889 0.113778-10.126222 4.778667-10.012444 10.353778zM635.562667 390.257778c0.113778 5.575111 4.664889 10.012444 10.353777 10.012444 5.575111-0.113778 10.012444-4.664889 10.012445-10.353778-0.113778-5.575111-4.664889-10.126222-10.353778-10.012444-5.688889 0.113778-10.126222 4.778667-10.012444 10.353778zM633.856 288.881778c0.113778 5.575111 4.664889 10.126222 10.353778 10.012444 5.575111-0.113778 10.012444-4.664889 10.012444-10.353778-0.113778-5.575111-4.664889-10.126222-10.353778-10.012444-5.575111 0.113778-10.012444 4.664889-10.012444 10.353778zM808.846222 438.158222c0-1.365333-0.341333-2.730667-0.910222-3.982222 0.568889 1.251556 0.910222 2.616889 0.910222 3.982222zM805.774222 430.990222c0.910222 0.910222 1.706667 1.934222 2.275556 3.185778 0.568889 1.251556 0.796444 2.503111 0.910222 3.982222 0 1.365333-0.227556 2.730667-0.682667 3.982222l0 0c0.455111-1.251556 0.796444-2.616889 0.682667-3.982222 0-1.365333-0.341333-2.730667-0.910222-3.982222-0.568889-1.137778-1.365333-2.275556-2.275556-3.185778-0.910222-0.910222-2.048-1.592889-3.299555-2.161778 1.251556 0.568889 2.389333 1.365333 3.299555 2.161778zM687.104 440.206222c0-1.365333 0.227556-2.730667 0.682667-3.982222-0.455111 1.251556-0.682667 2.503111-0.682667 3.982222zM707.470222 439.864889c0-1.365333-0.341333-2.730667-0.910222-3.982222 0.568889 1.251556 0.796444 2.503111 0.910222 3.982222z" fill="#231B3B" p-id="6258"></path><path d="M689.948444 432.924444c-0.910222 0.910222-1.592889 2.048-2.161777 3.299556-0.455111 1.251556-0.796444 2.503111-0.682667 3.982222 0 1.365333 0.341333 2.730667 0.910222 3.982222 1.592889 3.640889 5.233778 6.144 9.443556 6.030223 4.209778-0.113778 7.736889-2.730667 9.216-6.371556 0.455111-1.251556 0.796444-2.616889 0.682666-3.982222 0-1.365333-0.341333-2.730667-0.910222-3.982222s-1.251556-2.275556-2.275555-3.185778c-1.820444-1.820444-4.437333-2.844444-7.281778-2.844445-2.616889 0-5.12 1.251556-6.940445 3.072zM804.636444 231.310222c0.568889 1.251556 0.796444 2.503111 0.910223 3.982222 0.113778 4.209778-2.389333 7.850667-6.030223 9.443556-1.251556 0.568889-2.503111 0.796444-3.982222 0.910222 1.365333 0 2.730667-0.341333 3.982222-0.910222 3.640889-1.592889 6.144-5.233778 6.030223-9.443556 0-1.365333-0.341333-2.730667-0.910223-3.982222-1.024-2.389333-3.072-4.323556-5.461333-5.347555-1.251556-0.455111-2.616889-0.796444-3.982222-0.682667 1.365333 0 2.730667 0.227556 3.982222 0.682667 2.389333 1.024 4.437333 2.958222 5.461333 5.347555zM684.487111 233.358222c-0.455111 1.251556-0.796444 2.503111-0.682667 3.982222 0.113778 4.209778 2.730667 7.736889 6.371556 9.216 1.251556 0.455111 2.503111 0.796444 3.982222 0.682667 1.365333 0 2.730667-0.341333 3.982222-0.910222 3.640889-1.592889 6.144-5.233778 6.030223-9.443556 0-1.365333-0.341333-2.730667-0.910223-3.982222-1.024-2.389333-3.072-4.323556-5.461333-5.347555-1.251556-0.455111-2.616889-0.796444-3.982222-0.682667-1.365333 0-2.730667 0.341333-3.982222 0.910222-2.389333 1.137778-4.323556 3.072-5.347556 5.575111zM791.893333 641.365333c0 1.365333 0.341333 2.730667 0.910223 3.982223-0.568889-1.251556-0.910222-2.616889-0.910223-3.982223zM812.145778 641.024zM793.6 742.855111c0.113778 5.575111 4.664889 10.012444 10.353778 10.012445-5.688889 0-10.353778-4.437333-10.353778-10.012445-0.113778-5.575111 4.323556-10.24 10.012444-10.353778-5.688889 0.113778-10.126222 4.664889-10.012444 10.353778z" fill="#231B3B" p-id="6259"></path><path d="M793.6 742.855111c0.113778 5.575111 4.664889 10.012444 10.353778 10.012445 5.575111-0.113778 10.012444-4.664889 10.012444-10.353778-0.113778-5.575111-4.664889-10.126222-10.353778-10.012445-5.688889 0.113778-10.126222 4.664889-10.012444 10.353778zM791.438222 431.331556c0.910222-0.910222 1.934222-1.706667 3.185778-2.275556 1.251556-0.568889 2.503111-0.796444 3.982222-0.910222-2.844444 0.113778-5.347556 1.251556-7.168 3.185778zM788.593778 438.499556c0 1.365333 0.341333 2.730667 0.910222 3.982222-0.568889-1.251556-0.910222-2.616889-0.910222-3.982222z" fill="#231B3B" p-id="6260"></path><path d="M798.492444 428.145778c1.365333 0 2.730667 0.227556 3.982223 0.682666-1.251556-0.341333-2.503111-0.682667-3.982223-0.682666-1.365333 0-2.730667 0.341333-3.982222 0.910222 1.251556-0.568889 2.616889-0.796444 3.982222-0.910222z" fill="#231B3B" p-id="6261"></path><path d="M802.474667 428.942222c-1.251556-0.455111-2.503111-0.796444-3.982223-0.682666 2.844444 0 5.347556 1.024 7.168 2.844444-0.796444-0.910222-1.934222-1.706667-3.185777-2.161778zM808.846222 438.158222zM790.186667 539.989333c0.113778 5.575111 4.664889 10.012444 10.353777 10.012445-5.575111 0-10.24-4.437333-10.353777-10.012445-0.113778-5.575111 4.323556-10.24 10.012444-10.353777-5.575111 0.113778-10.012444 4.664889-10.012444 10.353777z" fill="#231B3B" p-id="6262"></path><path d="M790.186667 539.989333c0.113778 5.575111 4.664889 10.012444 10.353777 10.012445 5.575111-0.113778 10.012444-4.664889 10.012445-10.353778-0.113778-5.575111-4.664889-10.126222-10.353778-10.012444-5.575111 0.113778-10.012444 4.664889-10.012444 10.353777zM791.893333 641.365333c0-2.844444 1.024-5.347556 2.844445-7.168-1.820444 1.820444-2.844444 4.323556-2.844445 7.168zM809.073778 633.969778c1.820444 1.820444 3.072 4.323556 3.072 7.168 0-2.844444-1.251556-5.461333-3.072-7.168z" fill="#231B3B" p-id="6263"></path><path d="M794.737778 634.197333c-1.820444 1.820444-2.844444 4.437333-2.844445 7.168 0 1.365333 0.341333 2.730667 0.910223 3.982223 1.592889 3.640889 5.233778 6.144 9.443555 6.030222-4.209778 0.113778-7.850667-2.389333-9.443555-6.030222-0.568889-1.251556-0.796444-2.503111-0.910223-3.982223 0-2.844444 1.024-5.347556 2.844445-7.168 1.820444-1.820444 4.323556-3.072 7.168-3.072-2.844444 0-5.347556 1.137778-7.168 3.072zM791.893333 641.365333c0 1.365333 0.341333 2.730667 0.910223 3.982223-0.568889-1.251556-0.910222-2.616889-0.910223-3.982223z" fill="#231B3B" p-id="6264"></path><path d="M791.893333 641.365333c0-2.844444 1.024-5.347556 2.844445-7.168-1.820444 1.820444-2.844444 4.323556-2.844445 7.168z" fill="#231B3B" p-id="6265"></path><path d="M791.893333 641.365333c0 1.365333 0.341333 2.730667 0.910223 3.982223 1.592889 3.640889 5.233778 6.144 9.443555 6.030222 4.209778-0.113778 7.736889-2.730667 9.216-6.371556 0.455111-1.251556 0.796444-2.616889 0.682667-3.982222 0-2.844444-1.251556-5.347556-3.072-7.168-1.820444-1.820444-4.437333-2.844444-7.168-2.844444-2.844444 0-5.347556 1.251556-7.168 3.072-1.820444 1.934222-2.844444 4.437333-2.844445 7.281777zM838.428444 386.958222c0.113778 5.575111 4.664889 10.012444 10.353778 10.012445 5.575111-0.113778 10.012444-4.664889 10.012445-10.353778-0.113778-5.575111-4.664889-10.126222-10.353778-10.012445-5.575111 0.113778-10.126222 4.778667-10.012445 10.353778zM836.835556 285.468444c0.113778 5.575111 4.664889 10.126222 10.353777 10.012445 5.575111-0.113778 10.012444-4.664889 10.012445-10.353778-0.113778-5.575111-4.664889-10.126222-10.353778-10.012444-5.688889 0.227556-10.126222 4.778667-10.012444 10.353777zM785.294222 235.633778c0.113778 4.209778 2.730667 7.736889 6.371556 9.216-3.754667-1.479111-6.371556-5.006222-6.371556-9.216zM791.324444 226.190222c-2.389333 1.024-4.323556 3.072-5.347555 5.461334 1.024-2.389333 2.844444-4.437333 5.347555-5.461334zM805.546667 235.292444c0.113778 4.209778-2.389333 7.850667-6.030223 9.443556 3.527111-1.592889 6.030222-5.233778 6.030223-9.443556zM799.175111 226.076444c2.389333 1.024 4.437333 2.844444 5.461333 5.347556-1.024-2.503111-3.072-4.437333-5.461333-5.347556zM786.887111 337.009778c0.113778 5.575111 4.664889 10.012444 10.353778 10.012444-5.575111 0.113778-10.24-4.323556-10.353778-10.012444-0.113778-5.575111 4.323556-10.24 10.012445-10.353778-5.575111 0.227556-10.126222 4.778667-10.012445 10.353778z" fill="#231B3B" p-id="6266"></path><path d="M786.887111 337.009778c0.113778 5.575111 4.664889 10.012444 10.353778 10.012444 5.575111-0.113778 10.012444-4.664889 10.012444-10.353778-0.113778-5.575111-4.664889-10.126222-10.353777-10.012444-5.575111 0.227556-10.126222 4.778667-10.012445 10.353778zM788.593778 438.499556zM808.846222 438.158222c0-1.365333-0.341333-2.730667-0.910222-3.982222 0.568889 1.251556 0.910222 2.616889 0.910222 3.982222zM789.390222 442.481778c-0.568889-1.251556-0.796444-2.503111-0.910222-3.982222 0-1.365333 0.227556-2.730667 0.682667-3.982223 0.455111-1.251556 1.251556-2.275556 2.161777-3.299555 0.910222-0.910222 1.934222-1.706667 3.185778-2.275556-1.251556 0.568889-2.275556 1.251556-3.185778 2.275556-0.910222 0.910222-1.592889 2.048-2.161777 3.299555-0.455111 1.251556-0.796444 2.503111-0.682667 3.982223 0.113778 1.365333 0.455111 2.730667 0.910222 3.982222 1.592889 3.640889 5.233778 6.144 9.443556 6.030222-4.209778 0-7.850667-2.503111-9.443556-6.030222z" fill="#231B3B" p-id="6267"></path><path d="M789.390222 442.481778c-0.568889-1.251556-0.796444-2.503111-0.910222-3.982222 0.113778 1.365333 0.455111 2.730667 0.910222 3.982222zM798.492444 428.145778c-1.365333 0-2.730667 0.341333-3.982222 0.910222s-2.275556 1.251556-3.185778 2.275556c1.934222-1.934222 4.437333-3.072 7.168-3.185778zM788.593778 438.499556z" fill="#231B3B" p-id="6268"></path><path d="M808.163556 442.140444c0.455111-1.251556 0.796444-2.616889 0.682666-3.982222 0-1.365333-0.341333-2.730667-0.910222-3.982222s-1.251556-2.275556-2.275556-3.185778c-1.820444-1.820444-4.437333-2.844444-7.168-2.844444-2.844444 0-5.347556 1.251556-7.168 3.072-0.910222 0.910222-1.592889 2.048-2.161777 3.299555-0.455111 1.251556-0.796444 2.503111-0.682667 3.982223 0 1.365333 0.341333 2.730667 0.910222 3.982222 1.592889 3.640889 5.233778 6.144 9.443556 6.030222 4.209778-0.113778 7.850667-2.730667 9.329778-6.371556zM835.128889 184.092444c0.113778 5.575111 4.664889 10.012444 10.353778 10.012445 5.575111-0.113778 10.012444-4.664889 10.012444-10.353778-0.113778-5.575111-4.664889-10.126222-10.353778-10.012444-5.688889 0.113778-10.126222 4.778667-10.012444 10.353777zM791.324444 226.190222c-2.389333 1.024-4.323556 3.072-5.347555 5.461334-0.455111 1.251556-0.796444 2.503111-0.682667 3.982222 0.113778 4.209778 2.730667 7.736889 6.371556 9.216 1.251556 0.455111 2.503111 0.796444 3.982222 0.682666-1.365333 0-2.730667-0.227556-3.982222-0.682666-3.640889-1.479111-6.257778-5.006222-6.371556-9.216 0-1.365333 0.227556-2.730667 0.682667-3.982222 1.024-2.389333 2.844444-4.437333 5.347555-5.461334 1.251556-0.568889 2.503111-0.796444 3.982223-0.910222-1.479111 0.113778-2.844444 0.341333-3.982223 0.910222z" fill="#231B3B" p-id="6269"></path><path d="M791.324444 226.190222c-2.389333 1.024-4.323556 3.072-5.347555 5.461334 1.024-2.389333 2.844444-4.437333 5.347555-5.461334zM785.294222 235.633778c0.113778 4.209778 2.730667 7.736889 6.371556 9.216-3.754667-1.479111-6.371556-5.006222-6.371556-9.216z" fill="#231B3B" p-id="6270"></path><path d="M785.976889 231.651556c-0.455111 1.251556-0.796444 2.503111-0.682667 3.982222 0.113778 4.209778 2.730667 7.736889 6.371556 9.216 1.251556 0.455111 2.503111 0.796444 3.982222 0.682666 1.365333 0 2.730667-0.341333 3.982222-0.910222 3.640889-1.592889 6.144-5.233778 6.030222-9.443555 0-1.365333-0.341333-2.730667-0.910222-3.982223-1.024-2.389333-3.072-4.323556-5.461333-5.347555-1.251556-0.455111-2.616889-0.796444-3.982222-0.682667-1.365333 0-2.730667 0.341333-3.982223 0.910222-2.503111 1.137778-4.323556 3.185778-5.347555 5.575112z" fill="#231B3B" p-id="6271"></path><path d="M434.631111 903.395556c-18.887111 0-34.133333-15.246222-34.133333-34.133334V672.768c0-7.850667 2.730667-15.587556 7.736889-21.617778l410.510222-500.280889c9.671111-11.832889 26.055111-15.701333 40.049778-9.557333 13.994667 6.144 22.186667 20.821333 20.138666 35.953778l-93.411555 664.917333c-1.479111 10.922667-8.305778 20.48-17.976889 25.486222-9.784889 5.12-21.390222 5.12-31.288889 0.113778l-213.105778-108.430222c-16.839111-8.533333-23.438222-29.127111-14.904889-45.852445 8.533333-16.839111 29.127111-23.438222 45.852445-14.904888l170.552889 86.812444 69.859555-497.208889L468.764444 685.056V869.262222c0 18.887111-15.36 34.133333-34.133333 34.133334z" fill="#592B0C" p-id="6272"></path><path d="M331.776 659.911111c-5.233778 0-10.581333-1.251556-15.587556-3.754667l-174.08-89.884444c-11.264-5.802667-18.432-17.408-18.432-30.151111-0.113778-12.743111 6.940444-24.348444 18.204445-30.378667l687.331555-363.406222c16.611556-8.760889 37.319111-2.389333 46.08 14.222222 8.760889 16.611556 2.389333 37.319111-14.222222 46.08L231.424 535.552l116.053333 59.960889c16.725333 8.647111 23.324444 29.240889 14.677334 45.966222-6.030222 11.719111-17.976889 18.432-30.378667 18.432z" fill="#592B0C" p-id="6273"></path></svg>