<?xml version="1.0" standalone="no"?><!DOCTYPE svg PUBLIC "-//W3C//DTD SVG 1.1//EN" "http://www.w3.org/Graphics/SVG/1.1/DTD/svg11.dtd"><svg t="1622637028348" class="icon" viewBox="0 0 1024 1024" version="1.1" xmlns="http://www.w3.org/2000/svg" p-id="3481" xmlns:xlink="http://www.w3.org/1999/xlink" width="200" height="200"><defs><style type="text/css"></style></defs><path d="M450.8672 409.088h-209.92c-17.6128 0-32-14.336-32-32V231.7824c0-17.6128 14.336-32 32-32h209.92c17.6128 0 32 14.336 32 32v145.3056c0 17.664-14.3872 32-32 32zM240.9984 220.3136c-6.3488 0-11.52 5.1712-11.52 11.52v145.3056c0 6.3488 5.1712 11.52 11.52 11.52h209.92c6.3488 0 11.52-5.1712 11.52-11.52V231.7824c0-6.3488-5.1712-11.52-11.52-11.52h-209.92zM519.168 463.7184H172.6464c-5.632 0-10.24-4.608-10.24-10.24s4.608-10.24 10.24-10.24h346.5216a10.24 10.24 0 1 1 0 20.48zM782.4896 763.0848h-209.92c-17.6128 0-32-14.336-32-32v-145.3056c0-17.6128 14.336-32 32-32h209.92c17.6128 0 32 14.336 32 32v145.3056c0 17.6128-14.3872 32-32 32z m-209.92-188.8256c-6.3488 0-11.52 5.1712-11.52 11.52v145.3056c0 6.3488 5.1712 11.52 11.52 11.52h209.92c6.3488 0 11.52-5.1712 11.52-11.52v-145.3056c0-6.3488-5.1712-11.52-11.52-11.52h-209.92zM850.7904 817.7152H504.2688c-5.632 0-10.24-4.608-10.24-10.24s4.608-10.24 10.24-10.24h346.5216a10.24 10.24 0 1 1 0 20.48zM811.1104 343.296c-5.632 0-10.24-4.608-10.24-10.24V216.6272h-116.4288c-5.632 0-10.24-4.608-10.24-10.24s4.608-10.24 10.24-10.24h126.6688c5.632 0 10.24 4.608 10.24 10.24v126.6688a10.24 10.24 0 0 1-10.24 10.24zM342.4256 825.856H215.7568c-5.632 0-10.24-4.608-10.24-10.24v-126.6688c0-5.632 4.608-10.24 10.24-10.24s10.24 4.608 10.24 10.24v116.4288h116.4288a10.24 10.24 0 1 1 0 20.48z" p-id="3482" fill="#1296db"></path></svg>