<?xml version="1.0" standalone="no"?><!DOCTYPE svg PUBLIC "-//W3C//DTD SVG 1.1//EN" "http://www.w3.org/Graphics/SVG/1.1/DTD/svg11.dtd"><svg t="1637933101340" class="icon" viewBox="0 0 1024 1024" version="1.1" xmlns="http://www.w3.org/2000/svg" p-id="1890" xmlns:xlink="http://www.w3.org/1999/xlink" width="200" height="200"><defs><style type="text/css"></style></defs><path d="M958.144106 816.585043c0 78.526471-63.212694 142.190443-141.178393 142.190443H207.033263c-77.964676 0-141.178393-63.663972-141.178393-142.190443V202.254424c0-78.526471 63.212694-142.190443 141.178393-142.190443h609.93245c77.964676 0 141.178393 63.663972 141.178393 142.190443v614.330619z" fill="#F19227" p-id="1891"></path><path d="M521.406231 268.041756c-152.062278 0-275.774881 110.478184-275.774881 246.277056 0 84.194564 47.578622 158.63088 119.964232 203.063859-19.441794 22.236444-45.977147 40.415478-77.639264 51.129494a184.53383 184.53383 0 0 1-57.043181 9.746991c25.578562 14.876826 56.615439 23.627117 90.099041 23.627117 50.539047 0 95.431489-19.938098 124.414591-50.868551a305.532625 305.532625 0 0 0 75.979462 9.584286c152.062278 0 275.774881-110.482277 275.77488-246.282173-0.001023-135.799896-123.712603-246.278079-275.77488-246.278079zM361.098151 560.576345c-31.273261 0-56.627718-25.359574-56.627718-56.637951 0-31.284517 25.354458-56.639998 56.627718-56.639998 31.284517 0 56.639998 25.354458 56.639999 56.639998-0.001023 31.278377-25.355481 56.637951-56.639999 56.637951z m164.717506 5.062296c-31.273261 0-56.627718-25.354458-56.627718-56.639998 0-31.279401 25.354458-56.639998 56.627718-56.639998 31.284517 0 56.639998 25.360598 56.639998 56.639998 0 31.284517-25.355481 56.639998-56.639998 56.639998z m173.012426 0c-31.28554 0-56.639998-25.354458-56.639999-56.639998 0-31.279401 25.354458-56.639998 56.639999-56.639998 31.273261 0 56.627718 25.360598 56.627718 56.639998 0 31.284517-25.354458 56.639998-56.627718 56.639998z" fill="#FFFFFF" p-id="1892"></path></svg>