<?xml version="1.0" standalone="no"?><!DOCTYPE svg PUBLIC "-//W3C//DTD SVG 1.1//EN" "http://www.w3.org/Graphics/SVG/1.1/DTD/svg11.dtd"><svg t="1659962279876" class="icon" viewBox="0 0 1024 1024" version="1.1" xmlns="http://www.w3.org/2000/svg" p-id="5605" xmlns:xlink="http://www.w3.org/1999/xlink" width="200" height="200"><defs><style type="text/css">@font-face { font-family: feedback-iconfont; src: url("//at.alicdn.com/t/font_1031158_u69w8yhxdu.woff2?t=1630033759944") format("woff2"), url("//at.alicdn.com/t/font_1031158_u69w8yhxdu.woff?t=1630033759944") format("woff"), url("//at.alicdn.com/t/font_1031158_u69w8yhxdu.ttf?t=1630033759944") format("truetype"); }
</style></defs><path d="M713.4208 832.8192H463.3088V615.424a370.4832 370.4832 0 0 0-65.3824-5.0688c-204.8 0-369.4592 137.0112-369.4592 305.3568h688.6912a90.112 90.112 0 0 1-3.7888-27.5968v-55.296h0.0512zM185.6 332.6464a222.3616 222.3616 0 1 0 444.8256 0 222.4128 222.4128 0 1 0-444.8256 0z m0 0" fill="#00A0E9" p-id="5606"></path><path d="M978.5344 669.44l-168.3968-160.8704c-8.8576-7.5264-16.3328-12.5952-22.5792-12.5952-10.0864 0-17.6128 10.0352-17.6128 28.8768v111.872h-251.3408v140.7488h250.112v111.8208c0 17.664 7.4752 27.648 17.5616 27.648 6.2976 0 13.8752-3.6864 22.6304-11.3152l169.6256-159.5904a51.712 51.712 0 0 0 0-76.5952z m0 0" fill="#00A0E9" p-id="5607"></path></svg>