<?xml version="1.0" standalone="no"?><!DOCTYPE svg PUBLIC "-//W3C//DTD SVG 1.1//EN" "http://www.w3.org/Graphics/SVG/1.1/DTD/svg11.dtd"><svg t="1637933134381" class="icon" viewBox="0 0 1024 1024" version="1.1" xmlns="http://www.w3.org/2000/svg" p-id="3575" xmlns:xlink="http://www.w3.org/1999/xlink" width="200" height="200"><defs><style type="text/css"></style></defs><path d="M873.472 0H150.528C67.584 0 0 67.584 0 150.528v722.944C0 956.416 67.584 1024 150.528 1024h722.944c82.944 0 150.528-67.584 150.528-150.528V150.528C1024 67.584 956.416 0 873.472 0z m-61.952 656.896c0 41.472-33.792 74.752-74.752 74.752H287.232c-41.472 0-74.752-33.28-74.752-74.752V367.104c0-41.472 33.28-74.752 74.752-74.752h449.024c41.472 0 74.752 33.28 74.752 74.752v289.792z" fill="#4873ED" p-id="3576"></path><path d="M712.192 427.008L512 556.032 311.808 427.008c-9.216-6.144-21.504-3.072-27.648 6.144-6.144 9.216-3.072 21.504 6.144 27.648l210.944 135.68c3.072 2.048 7.168 3.072 10.752 3.072 3.584 0 7.68-1.024 10.752-3.072L733.696 460.8a20.48 20.48 0 0 0 6.144-27.648 20.48 20.48 0 0 0-27.648-6.144z" fill="#4873ED" p-id="3577"></path></svg>