<?xml version="1.0" standalone="no"?><!DOCTYPE svg PUBLIC "-//W3C//DTD SVG 1.1//EN" "http://www.w3.org/Graphics/SVG/1.1/DTD/svg11.dtd"><svg t="1569571078865" class="icon" viewBox="0 0 1024 1024" version="1.1" xmlns="http://www.w3.org/2000/svg" p-id="1857" xmlns:xlink="http://www.w3.org/1999/xlink" width="200" height="200"><defs><style type="text/css"></style></defs><path d="M656 379.52h8.96l21.76 32.64a71.04 71.04 0 0 1 48.64-19.2h4.48l-20.48-32a95.36 95.36 0 0 0 31.36-67.2 90.24 90.24 0 1 0-179.84 0 107.52 107.52 0 0 0 22.4 64l-128 288h-7.04c-13.44 0-22.4 4.48-31.36 4.48L278.4 482.56a90.88 90.88 0 1 0-76.16 40.32 56.96 56.96 0 0 0 26.88-4.48L384 689.92a64 64 0 0 0-8.96 40.32 90.24 90.24 0 1 0 179.84 0 75.52 75.52 0 0 0-26.88-64zM734.72 456.96a7.68 7.68 0 0 1 5.12 0 7.68 7.68 0 0 0-5.12 0z" fill="#6A81AE" p-id="1858"></path><path d="M980.48 558.08h-43.52a110.08 110.08 0 0 0-12.8-30.08l28.8-32.64a7.68 7.68 0 0 0 0-10.24l-23.04-23.04a7.68 7.68 0 0 0-5.12 0 7.68 7.68 0 0 0-5.12 0l-32.64 28.8a110.08 110.08 0 0 0-30.08-12.8v-43.52a7.68 7.68 0 0 0-7.68-7.04h-32.64a7.68 7.68 0 0 0-7.68 7.04v43.52a110.08 110.08 0 0 0-30.08 12.8l-32.64-28.8a7.68 7.68 0 0 0-5.12 0 7.68 7.68 0 0 0-5.12 0l-32 19.84a7.68 7.68 0 0 0 0 10.24l28.8 32.64a110.08 110.08 0 0 0-12.8 30.08h-43.52a7.68 7.68 0 0 0-7.04 7.68v32.64a7.68 7.68 0 0 0 7.04 7.68h43.52a110.08 110.08 0 0 0 12.8 30.08l-28.8 39.04a7.68 7.68 0 0 0 0 10.24l23.04 23.04a7.68 7.68 0 0 0 5.12 0 7.68 7.68 0 0 0 5.12 0l32.64-28.8a110.08 110.08 0 0 0 30.08 12.8v43.52a7.68 7.68 0 0 0 7.68 7.04h32.64a7.68 7.68 0 0 0 7.68-7.04v-43.52a110.08 110.08 0 0 0 30.08-12.8l32.64 28.8a7.68 7.68 0 0 0 5.12 0 7.68 7.68 0 0 0 5.12 0l23.04-23.04a7.68 7.68 0 0 0 0-10.24l-19.2-32a110.08 110.08 0 0 0 12.8-30.08h43.52a7.68 7.68 0 0 0 7.04-7.68v-36.48a7.68 7.68 0 0 0-7.68-7.68zM832 640a58.24 58.24 0 1 1 58.24-58.24 58.24 58.24 0 0 1-58.24 58.24z" fill="#DDCC3A" p-id="1859"></path></svg>