<?xml version="1.0" standalone="no"?><!DOCTYPE svg PUBLIC "-//W3C//DTD SVG 1.1//EN" "http://www.w3.org/Graphics/SVG/1.1/DTD/svg11.dtd"><svg t="1695299136298" class="icon" viewBox="0 0 1024 1024" version="1.1" xmlns="http://www.w3.org/2000/svg" p-id="8736" xmlns:xlink="http://www.w3.org/1999/xlink" width="200" height="200"><path d="M512 672A160 160 0 1 1 672 512 160 160 0 0 1 512 672z m0-256A96 96 0 1 0 608 512 96 96 0 0 0 512 416zM192 288A96 96 0 1 1 288 192 96 96 0 0 1 192 288z m0-128a32 32 0 1 0 32 32 32 32 0 0 0-32-32zM832 288A96 96 0 1 1 928 192 96 96 0 0 1 832 288z m0-128a32 32 0 1 0 32 32 32 32 0 0 0-32-32zM832 928a96 96 0 1 1 96-96 96 96 0 0 1-96 96z m0-128a32 32 0 1 0 32 32 32 32 0 0 0-32-32zM192 928A96 96 0 1 1 288 832 96 96 0 0 1 192 928z m0-128a32 32 0 1 0 32 32 32 32 0 0 0-32-32z" p-id="8737"></path><path d="M768 800a30.08 30.08 0 0 1-22.4-9.6l-160-160a31.36 31.36 0 0 1 44.8-44.8l160 160a30.72 30.72 0 0 1 0 44.8 30.08 30.08 0 0 1-22.4 9.6zM416 448a30.08 30.08 0 0 1-22.4-9.6l-160-160a31.36 31.36 0 0 1 44.8-44.8l160 160a30.72 30.72 0 0 1 0 44.8 30.08 30.08 0 0 1-22.4 9.6zM256 800a30.08 30.08 0 0 1-22.4-9.6 30.72 30.72 0 0 1 0-44.8l160-160a31.36 31.36 0 0 1 44.8 44.8l-160 160a30.08 30.08 0 0 1-22.4 9.6zM602.24 453.76a32 32 0 0 1-22.4-9.6 32.64 32.64 0 0 1 0-45.44l165.76-165.12a31.36 31.36 0 0 1 44.8 44.8L625.28 444.16a32.64 32.64 0 0 1-23.04 9.6z" fill="#4D4D4D" p-id="8738"></path></svg>
