<?xml version="1.0" standalone="no"?><!DOCTYPE svg PUBLIC "-//W3C//DTD SVG 1.1//EN" "http://www.w3.org/Graphics/SVG/1.1/DTD/svg11.dtd"><svg t="1695298938965" class="icon" viewBox="0 0 1024 1024" version="1.1" xmlns="http://www.w3.org/2000/svg" p-id="5829" xmlns:xlink="http://www.w3.org/1999/xlink" width="200" height="200"><path d="M609 463.5H259.8c-16.07 0-29.1-13.02-29.1-29.1s13.03-29.1 29.1-29.1H609c16.07 0 29.1 13.02 29.1 29.1s-13.03 29.1-29.1 29.1zM415 657.5H259.8c-16.07 0-29.1-13.02-29.1-29.1 0-16.08 13.03-29.1 29.1-29.1H415c16.07 0 29.1 13.02 29.1 29.1 0 16.08-13.03 29.1-29.1 29.1z" p-id="5830"></path><path d="M861.2 851.5H162.8c-37.44 0-67.9-30.46-67.9-67.9V240.4c0-37.44 30.46-67.9 67.9-67.9h698.4c37.44 0 67.9 30.46 67.9 67.9v543.2c0 37.44-30.46 67.9-67.9 67.9zM162.8 230.7c-5.34 0-9.7 4.35-9.7 9.7v543.2c0 5.35 4.36 9.7 9.7 9.7h698.4c5.34 0 9.7-4.35 9.7-9.7V240.4c0-5.35-4.36-9.7-9.7-9.7H162.8z" p-id="5831"></path></svg>