<?xml version="1.0" standalone="no"?><!DOCTYPE svg PUBLIC "-//W3C//DTD SVG 1.1//EN" "http://www.w3.org/Graphics/SVG/1.1/DTD/svg11.dtd"><svg t="1695301341012" class="icon" viewBox="0 0 1024 1024" version="1.1" xmlns="http://www.w3.org/2000/svg" p-id="19897" xmlns:xlink="http://www.w3.org/1999/xlink" width="128" height="128"><path d="M792.966095 1024H231.033905A231.033905 231.033905 0 0 1 0 792.966095V231.033905A231.033905 231.033905 0 0 1 231.033905 0h561.93219A231.033905 231.033905 0 0 1 1024 231.033905v561.93219A231.131429 231.131429 0 0 1 792.966095 1024z"  p-id="19898"></path><path d="M873.179429 494.738286a9.118476 9.118476 0 0 0-8.045715-9.020953l-53.686857-6.729143a24.33219 24.33219 0 0 1-20.626286-20.041142c0-0.146286 0-0.292571-0.146285-0.487619a24.429714 24.429714 0 0 1 11.605333-26.185143l47.396571-26.916572a9.264762 9.264762 0 0 0 3.998477-11.215238l-8.289524-21.991619a9.167238 9.167238 0 0 0-10.581333-5.753905l-52.71162 12.044191a24.234667 24.234667 0 0 1-26.331428-11.897905c-0.195048-0.146286-0.195048-0.292571-0.341333-0.438857a24.380952 24.380952 0 0 1 1.999238-28.330667l35.401143-41.447619a9.264762 9.264762 0 0 0 0-11.849143l-15.311239-17.895619a9.216 9.216 0 0 0-11.897904-1.755428l-45.543619 29.403428a24.380952 24.380952 0 0 1-28.769524-2.145523c-0.195048-0.146286-0.341333-0.146286-0.341334-0.292572a24.283429 24.283429 0 0 1-7.850666-27.355428l19.017143-51.2a9.069714 9.069714 0 0 0-4.144762-11.117715l-20.48-11.605333a9.118476 9.118476 0 0 0-11.702857 2.438095l-32.670477 42.959238A24.283429 24.283429 0 0 1 605.622857 243.809524c-0.146286 0-0.292571-0.146286-0.585143-0.146286a24.380952 24.380952 0 0 1-17.066666-23.064381l0.487619-54.467047a9.362286 9.362286 0 0 0-7.655619-9.167239l-23.161905-3.85219a9.069714 9.069714 0 0 0-10.191238 6.339048l-21.357715 68.998095c-4.729905-0.292571-9.264762-0.682667-14.043428-0.682667-7.41181 0-14.726095 0.536381-22.186667 1.121524l-24.380952-67.876571a9.069714 9.069714 0 0 0-10.24-5.851429l-23.113143 4.242286a9.167238 9.167238 0 0 0-7.41181 9.459809l2.53562 54.028191a24.380952 24.380952 0 0 1-16.042667 23.747047c-0.097524 0-0.24381 0.146286-0.536381 0.146286a24.527238 24.527238 0 0 1-27.940572-6.729143l-34.620952-41.935238a9.264762 9.264762 0 0 0-11.800381-2.048l-20.187428 11.897905a8.97219 8.97219 0 0 0-3.705905 11.459047l20.918857 49.834667a24.234667 24.234667 0 0 1-7.168 27.940572c-0.146286 0.146286-0.292571 0.292571-0.487619 0.292571a24.283429 24.283429 0 0 1-28.184381 3.023238l-46.957714-27.648a9.118476 9.118476 0 0 0-11.751619 2.145524l-14.921143 18.18819a9.313524 9.313524 0 0 0 0.292571 12.044191l36.815238 39.643428a24.624762 24.624762 0 0 1 3.023238 28.672l-0.292571 0.438858a24.33219 24.33219 0 0 1-25.648762 12.580571l-53.686857-9.849905a9.167238 9.167238 0 0 0-10.337524 5.997714l-7.753143 22.186667a9.167238 9.167238 0 0 0 4.437334 11.215238l48.128 24.771048c9.45981 4.87619 14.336 15.457524 12.629333 25.892571 0 0.146286 0 0.292571-0.146286 0.585143a24.185905 24.185905 0 0 1-19.748571 20.48l-53.735619 9.020953a9.020952 9.020952 0 0 0-7.606857 9.167238l0.292571 23.503238c0 4.583619 3.413333 8.43581 8.045714 9.020952l53.686857 6.729143a24.33219 24.33219 0 0 1 20.626286 20.041143 24.429714 24.429714 0 0 1-11.459047 26.624l-47.104 26.672762a9.264762 9.264762 0 0 0-3.998477 11.215238l8.289524 21.894095a9.167238 9.167238 0 0 0 10.581333 5.705143l52.71162-12.044191a24.234667 24.234667 0 0 1 26.331428 11.897905c0.195048 0.146286 0.195048 0.292571 0.341333 0.438857a24.380952 24.380952 0 0 1-1.999238 28.330667l-35.254857 41.447619a9.264762 9.264762 0 0 0 0 11.849143l15.311238 17.895619c3.023238 3.413333 8.045714 4.193524 11.897905 1.755429l45.543619-29.403429a24.380952 24.380952 0 0 1 28.769524 2.194286c0.195048 0.097524 0.341333 0.097524 0.341333 0.243809a24.283429 24.283429 0 0 1 7.850667 27.355429l-19.017143 51.2a9.069714 9.069714 0 0 0 4.144762 11.117714l20.48 11.605333a9.118476 9.118476 0 0 0 11.702857-2.438095l32.670476-42.959238a24.283429 24.283429 0 0 1 27.501715-7.899429c0.146286 0 0.292571 0.146286 0.585142 0.146286a24.380952 24.380952 0 0 1 17.066667 23.064381l-0.487619 54.467048c0 4.388571 3.169524 8.289524 7.606857 9.167238l23.210667 3.85219a9.069714 9.069714 0 0 0 10.191238-6.339047l21.357714-68.998096c4.729905 0.292571 9.264762 0.682667 13.994667 0.682667 7.460571 0 14.774857-0.536381 22.235428-1.121524l24.185905 68.169143c1.609143 4.291048 5.851429 6.729143 10.337524 5.851429l23.064381-4.242286a9.167238 9.167238 0 0 0 7.41181-9.459809l-2.53562-54.028191a24.380952 24.380952 0 0 1 16.042667-23.747048c0.097524 0 0.24381-0.146286 0.536381-0.146285a24.527238 24.527238 0 0 1 27.940572 6.729143l34.620952 41.935238a9.264762 9.264762 0 0 0 11.800381 2.048l20.187428-11.897905a9.118476 9.118476 0 0 0 3.705905-11.459048l-21.162666-49.883428a24.234667 24.234667 0 0 1 7.558095-28.184381 24.283429 24.283429 0 0 1 28.233143-3.023238l46.957714 27.648c3.900952 2.29181 8.923429 1.462857 11.751619-2.145524l14.921143-18.188191a9.313524 9.313524 0 0 0-0.292572-12.04419l-36.815238-39.643429a24.624762 24.624762 0 0 1-3.023238-28.672l0.292572-0.438857a24.33219 24.33219 0 0 1 25.648762-12.580571l53.735619 9.849905a9.167238 9.167238 0 0 0 10.288761-5.997715l7.753143-22.186666a9.167238 9.167238 0 0 0-4.437333-11.215239l-48.128-24.771047a24.527238 24.527238 0 0 1-12.629333-25.892572c0-0.146286 0-0.292571 0.146285-0.585142a24.185905 24.185905 0 0 1 19.748572-20.48l53.735619-9.020953a9.020952 9.020952 0 0 0 7.606857-9.167238l-0.292571-23.356952z m-597.333334 23.356952a240.88381 240.88381 0 0 1 67.779048-167.155809 32.426667 32.426667 0 0 1 51.98019 6.582857l80.944762 147.114666c4.87619 8.582095 4.291048 18.870857-0.877714 27.209143L385.219048 671.061333c-11.459048 17.749333-37.059048 20.333714-50.858667 4.583619-36.376381-42.422857-58.416762-97.52381-58.416762-157.549714z m473.575619 67.876572a241.859048 241.859048 0 0 1-231.765333 173.738666 243.370667 243.370667 0 0 1-78.214095-13.019428c-17.603048-5.997714-24.380952-27.648-14.140953-43.25181l93.915429-144.676571a32.914286 32.914286 0 0 1 27.794286-15.018667h172.032c21.455238 0 36.668952 21.455238 30.378666 42.22781z m-30.524952-93.622858h-174.567619a26.087619 26.087619 0 0 1-23.210667-13.799619l-81.822476-148.23619a32.572952 32.572952 0 0 1 21.796571-47.152762 241.712762 241.712762 0 0 1 288.329143 166.863238 32.426667 32.426667 0 0 1-30.524952 42.276571z" fill="#FFFFFF" p-id="19899"></path></svg>
